<svg width="337" height="96" viewBox="0 0 337 96" fill="none" xmlns="http://www.w3.org/2000/svg">
<path d="M4.55 77.275C4.36667 76.9083 4.05833 76.475 3.625 75.975C3.20833 75.475 2.8 75.0917 2.4 74.825C4.51667 73.975 6.25833 72.7833 7.625 71.25C9.00833 69.7 10.025 67.75 10.675 65.4L3.925 65.6L3.7 62.675C3.91667 62.6917 4.39167 62.7 5.125 62.7C5.85833 62.6833 6.75833 62.6667 7.825 62.65C8.89167 62.6333 10.025 62.6083 11.225 62.575C11.4583 61.025 11.5583 59.325 11.525 57.475L14.625 57.5C14.6417 58.3833 14.625 59.2417 14.575 60.075C14.525 60.9083 14.45 61.7167 14.35 62.5C15.5167 62.4667 16.6083 62.4333 17.625 62.4C18.6417 62.3667 19.4917 62.3333 20.175 62.3C20.875 62.2667 21.3167 62.2417 21.5 62.225C21.5 62.925 21.4583 63.7667 21.375 64.75C21.2917 65.7333 21.1833 66.75 21.05 67.8C20.9167 68.8333 20.775 69.8083 20.625 70.725C20.475 71.6417 20.325 72.3833 20.175 72.95C19.8917 74.1 19.5083 74.975 19.025 75.575C18.5583 76.175 17.9 76.5833 17.05 76.8C16.2167 77 15.1 77.0917 13.7 77.075C13.6333 76.675 13.5 76.1583 13.3 75.525C13.1167 74.8917 12.8833 74.3667 12.6 73.95C13.6667 73.9667 14.5 73.9417 15.1 73.875C15.7 73.8083 16.15 73.6417 16.45 73.375C16.7667 73.1083 17.0083 72.7 17.175 72.15C17.3417 71.6333 17.5 70.975 17.65 70.175C17.8 69.375 17.9333 68.5333 18.05 67.65C18.1667 66.75 18.25 65.9083 18.3 65.125L13.85 65.275C13.15 68.125 12.0167 70.5417 10.45 72.525C8.9 74.5083 6.93333 76.0917 4.55 77.275ZM28.2 76.3L26.5 73.225C27.6833 72.975 28.925 72.5667 30.225 72C31.5417 71.4167 32.8583 70.7417 34.175 69.975C35.4917 69.1917 36.7417 68.3583 37.925 67.475C39.1083 66.575 40.175 65.6667 41.125 64.75C42.0917 63.8333 42.875 62.9583 43.475 62.125C43.5417 62.4083 43.65 62.7583 43.8 63.175C43.9667 63.5917 44.1417 64 44.325 64.4C44.5083 64.7833 44.6667 65.0833 44.8 65.3C43.9833 66.35 42.9583 67.4167 41.725 68.5C40.5083 69.5667 39.1583 70.6 37.675 71.6C36.1917 72.5833 34.6417 73.4833 33.025 74.3C31.4083 75.1167 29.8 75.7833 28.2 76.3ZM30.875 65.275C30.6583 65.0417 30.35 64.7667 29.95 64.45C29.5667 64.1333 29.1333 63.8 28.65 63.45C28.1833 63.1 27.725 62.7833 27.275 62.5C26.825 62.2 26.4333 61.975 26.1 61.825L28.1 59.3C28.4333 59.4833 28.825 59.7167 29.275 60C29.725 60.2833 30.1833 60.5917 30.65 60.925C31.1333 61.2583 31.5833 61.5917 32 61.925C32.4167 62.2417 32.75 62.525 33 62.775L30.875 65.275ZM51.375 77.05L49.675 73.975C50.875 73.7083 52.125 73.2917 53.425 72.725C54.7417 72.1417 56.05 71.4667 57.35 70.7C58.65 69.9167 59.8917 69.0833 61.075 68.2C62.2583 67.3 63.325 66.4 64.275 65.5C65.225 64.5833 66 63.7083 66.6 62.875C66.6667 63.175 66.775 63.5333 66.925 63.95C67.0917 64.3667 67.2667 64.7667 67.45 65.15C67.6333 65.5333 67.7917 65.8333 67.925 66.05C67.0917 67.1 66.0583 68.1583 64.825 69.225C63.6083 70.2917 62.2667 71.325 60.8 72.325C59.3333 73.3083 57.7917 74.2083 56.175 75.025C54.575 75.8417 52.975 76.5167 51.375 77.05ZM56.025 63.775C55.825 63.575 55.5167 63.3333 55.1 63.05C54.7 62.7667 54.25 62.475 53.75 62.175C53.2667 61.8583 52.8 61.575 52.35 61.325C51.9167 61.075 51.5583 60.8917 51.275 60.775L52.975 58.175C53.3083 58.3417 53.7 58.5667 54.15 58.85C54.6167 59.1333 55.0833 59.4333 55.55 59.75C56.0333 60.05 56.475 60.3417 56.875 60.625C57.2917 60.9083 57.6167 61.1417 57.85 61.325L56.025 63.775ZM52.575 68.95C52.2583 68.6833 51.7917 68.3833 51.175 68.05C50.575 67.7167 49.95 67.4 49.3 67.1C48.6667 66.7833 48.125 66.55 47.675 66.4L49.225 63.7C49.7083 63.8833 50.2667 64.1333 50.9 64.45C51.55 64.7667 52.175 65.0917 52.775 65.425C53.375 65.7583 53.85 66.05 54.2 66.3L52.575 68.95ZM66.4 60.2C66.05 59.7167 65.5917 59.1917 65.025 58.625C64.475 58.0583 63.9833 57.6167 63.55 57.3L64.825 56.1C65.0917 56.2833 65.4083 56.5583 65.775 56.925C66.1583 57.275 66.5333 57.6417 66.9 58.025C67.2667 58.3917 67.55 58.7083 67.75 58.975L66.4 60.2ZM64.275 62.225C63.925 61.725 63.475 61.1917 62.925 60.625C62.375 60.0583 61.8833 59.6083 61.45 59.275L62.725 58.075C62.975 58.275 63.2833 58.5583 63.65 58.925C64.0333 59.2917 64.4083 59.6667 64.775 60.05C65.1417 60.4167 65.425 60.7333 65.625 61L64.275 62.225ZM72.2 78.325C71.9833 77.8417 71.7083 77.35 71.375 76.85C71.0583 76.3333 70.7667 75.95 70.5 75.7C72.3333 75.0167 74.0833 74.1333 75.75 73.05C77.4167 71.9667 78.9083 70.725 80.225 69.325C79.225 68.625 78.2667 68.075 77.35 67.675L79.1 65.375C80.05 65.8083 81.0667 66.3667 82.15 67.05C82.5833 66.4333 82.9833 65.8083 83.35 65.175C83.7333 64.525 84.075 63.8667 84.375 63.2C83.675 63.2333 82.9167 63.275 82.1 63.325C81.3 63.3583 80.55 63.3917 79.85 63.425C79.15 63.4417 78.6 63.4583 78.2 63.475C77.4667 64.5917 76.6333 65.6583 75.7 66.675C74.7833 67.675 73.775 68.6 72.675 69.45C72.3917 69.1167 72.0333 68.7333 71.6 68.3C71.1667 67.8667 70.7833 67.5583 70.45 67.375C71.6333 66.5417 72.7333 65.55 73.75 64.4C74.7667 63.25 75.6583 62.025 76.425 60.725C77.1917 59.425 77.7583 58.15 78.125 56.9L81.025 57.825C80.8417 58.325 80.6417 58.8333 80.425 59.35C80.2083 59.85 79.975 60.3417 79.725 60.825C80.4583 60.8083 81.25 60.7917 82.1 60.775C82.95 60.7417 83.75 60.7083 84.5 60.675C85.2667 60.625 85.85 60.575 86.25 60.525L88.175 61.575C87.7583 62.9083 87.25 64.175 86.65 65.375C86.05 66.5583 85.375 67.6833 84.625 68.75C85.2583 69.2167 85.85 69.6917 86.4 70.175C86.9667 70.6417 87.4333 71.0833 87.8 71.5C87.5833 71.6667 87.325 71.9 87.025 72.2C86.7417 72.5 86.4667 72.8083 86.2 73.125C85.9333 73.4417 85.725 73.725 85.575 73.975C85.2083 73.5417 84.775 73.0917 84.275 72.625C83.775 72.1417 83.2417 71.6667 82.675 71.2C81.275 72.7333 79.6917 74.0917 77.925 75.275C76.175 76.4583 74.2667 77.475 72.2 78.325ZM88.975 61.625C88.6583 61.0917 88.2417 60.525 87.725 59.925C87.225 59.325 86.775 58.8417 86.375 58.475L87.75 57.4C87.9833 57.6 88.275 57.9 88.625 58.3C88.975 58.6833 89.3167 59.075 89.65 59.475C89.9833 59.875 90.2417 60.2167 90.425 60.5L88.975 61.625ZM91.275 59.75C90.9583 59.2333 90.5417 58.6833 90.025 58.1C89.5083 57.5 89.0417 57.0167 88.625 56.65L90 55.575C90.2333 55.775 90.525 56.0667 90.875 56.45C91.2417 56.8333 91.5917 57.225 91.925 57.625C92.2583 58.025 92.5167 58.3667 92.7 58.65L91.275 59.75ZM92.425 78.75V61.825H97.6V60.225H91.25V57.875H97.6V56H100.5V57.875H104.525V56H107.425V57.875H113.725V60.225H107.425V61.825H112.575V78.75H92.425ZM95.3 73.525C96 73.1917 96.775 72.7333 97.625 72.15C98.4917 71.5667 99.25 70.975 99.9 70.375H96V68.375H101.225V67.25C100.542 67.2833 99.85 67.3167 99.15 67.35C98.4667 67.3667 97.7833 67.3667 97.1 67.35C97.0667 67.0667 96.9917 66.7083 96.875 66.275C96.7583 65.825 96.6417 65.4917 96.525 65.275C97.375 65.3083 98.275 65.3167 99.225 65.3C100.192 65.2833 101.158 65.2333 102.125 65.15C103.092 65.0667 104 64.9667 104.85 64.85C105.7 64.7333 106.433 64.5917 107.05 64.425L108.175 66.3C107.542 66.4667 106.85 66.6167 106.1 66.75C105.367 66.8667 104.6 66.9667 103.8 67.05V68.375H108.975V70.375H105.35C105.983 70.9417 106.7 71.4917 107.5 72.025C108.3 72.5583 109.033 72.9917 109.7 73.325V64.2H95.3V73.525ZM95.3 76.375H109.7V73.7C109.433 73.9333 109.167 74.225 108.9 74.575C108.65 74.9083 108.45 75.1917 108.3 75.425C107.533 74.975 106.75 74.4417 105.95 73.825C105.167 73.1917 104.45 72.5417 103.8 71.875V75.825H101.225V72.05C100.592 72.7167 99.8833 73.35 99.1 73.95C98.3333 74.55 97.575 75.0667 96.825 75.5C96.675 75.2667 96.45 74.9833 96.15 74.65C95.8667 74.3 95.5833 74.0083 95.3 73.775V76.375ZM100.5 61.825H104.525V60.225H100.5V61.825Z" fill="#383D43"/>
<path d="M324.675 47.875C324.658 47.625 324.617 47.3167 324.55 46.95C324.483 46.6 324.408 46.2583 324.325 45.925C324.242 45.575 324.15 45.3 324.05 45.1H325.7C326.033 45.1 326.267 45.05 326.4 44.95C326.55 44.85 326.625 44.6417 326.625 44.325V39.175H321.4C321.35 40.1083 321.15 40.85 320.8 41.4C320.467 41.95 320.042 42.3417 319.525 42.575C319.008 42.8083 318.442 42.925 317.825 42.925H317.05C316.983 42.475 316.875 41.9917 316.725 41.475C316.575 40.9583 316.433 40.5417 316.3 40.225V47.8H313.55V25.775H320.9L322.025 26.725C321.892 27.0583 321.692 27.525 321.425 28.125C321.158 28.7083 320.867 29.3417 320.55 30.025C320.25 30.6917 319.958 31.3167 319.675 31.9C320.375 31.5167 321.075 31.0417 321.775 30.475C322.475 29.9083 323.142 29.3 323.775 28.65C324.408 28 324.975 27.3583 325.475 26.725C325.975 26.075 326.358 25.4917 326.625 24.975L329.375 25.325C329.692 25.775 330.142 26.3 330.725 26.9C331.325 27.5 331.983 28.1 332.7 28.7C333.417 29.2833 334.142 29.8167 334.875 30.3C335.608 30.7833 336.275 31.1417 336.875 31.375C336.675 31.5583 336.45 31.8 336.2 32.1C335.95 32.3833 335.717 32.6833 335.5 33C335.283 33.3 335.117 33.5583 335 33.775C334.667 33.5917 334.317 33.3833 333.95 33.15C333.583 32.9167 333.208 32.6583 332.825 32.375V34.55H329.425V36.475H335.275V39.175H329.425V45.4C329.425 46.2667 329.175 46.8917 328.675 47.275C328.192 47.675 327.45 47.875 326.45 47.875H324.675ZM321.55 46.2C321.283 45.8667 320.95 45.5167 320.55 45.15C320.15 44.7667 319.775 44.4667 319.425 44.25C319.942 43.8667 320.467 43.4083 321 42.875C321.55 42.3417 322.05 41.7833 322.5 41.2C322.967 40.6167 323.333 40.075 323.6 39.575L325.95 41.05C325.6 41.6833 325.167 42.325 324.65 42.975C324.15 43.6083 323.625 44.2083 323.075 44.775C322.542 45.3417 322.033 45.8167 321.55 46.2ZM334.5 46.175C334.017 45.7917 333.5 45.325 332.95 44.775C332.4 44.2083 331.867 43.6083 331.35 42.975C330.85 42.325 330.417 41.6917 330.05 41.075L332.35 39.625C332.633 40.125 333.008 40.6667 333.475 41.25C333.942 41.8167 334.45 42.3667 335 42.9C335.567 43.4167 336.108 43.8583 336.625 44.225C336.275 44.4417 335.9 44.7417 335.5 45.125C335.117 45.4917 334.783 45.8417 334.5 46.175ZM321.025 36.475H326.625V34.55H322.975V32.95C322.708 33.1667 322.433 33.375 322.15 33.575C321.883 33.7583 321.617 33.9333 321.35 34.1C321.233 33.9 321.067 33.6667 320.85 33.4C320.633 33.1333 320.408 32.875 320.175 32.625C319.958 32.375 319.767 32.175 319.6 32.025C319.45 32.3417 319.317 32.625 319.2 32.875C319.083 33.125 318.983 33.3167 318.9 33.45C319.333 33.8667 319.742 34.3333 320.125 34.85C320.508 35.35 320.808 35.8917 321.025 36.475ZM324.1 32.025H332.375C331.508 31.3583 330.675 30.6417 329.875 29.875C329.092 29.0917 328.475 28.3833 328.025 27.75C327.558 28.4333 326.975 29.15 326.275 29.9C325.592 30.65 324.867 31.3583 324.1 32.025ZM316.3 40.125H317.05C317.483 40.125 317.825 40 318.075 39.75C318.325 39.4833 318.45 38.9333 318.45 38.1C318.45 36.5 317.733 35.0583 316.3 33.775V40.125ZM316.3 33.425C316.433 33.1417 316.6 32.7667 316.8 32.3C317 31.8167 317.208 31.3083 317.425 30.775C317.642 30.2417 317.842 29.75 318.025 29.3C318.208 28.8333 318.333 28.4833 318.4 28.25H316.3V33.425ZM314.425 73.75V56.825H319.6V55.225H313.25V52.875H319.6V51H322.5V52.875H326.525V51H329.425V52.875H335.725V55.225H329.425V56.825H334.575V73.75H314.425ZM317.3 68.525C318 68.1917 318.775 67.7333 319.625 67.15C320.492 66.5667 321.25 65.975 321.9 65.375H318V63.375H323.225V62.25C322.542 62.2833 321.85 62.3167 321.15 62.35C320.467 62.3667 319.783 62.3667 319.1 62.35C319.067 62.0667 318.992 61.7083 318.875 61.275C318.758 60.825 318.642 60.4917 318.525 60.275C319.375 60.3083 320.275 60.3167 321.225 60.3C322.192 60.2833 323.158 60.2333 324.125 60.15C325.092 60.0667 326 59.9667 326.85 59.85C327.7 59.7333 328.433 59.5917 329.05 59.425L330.175 61.3C329.542 61.4667 328.85 61.6167 328.1 61.75C327.367 61.8667 326.6 61.9667 325.8 62.05V63.375H330.975V65.375H327.35C327.983 65.9417 328.7 66.4917 329.5 67.025C330.3 67.5583 331.033 67.9917 331.7 68.325V59.2H317.3V68.525ZM317.3 71.375H331.7V68.7C331.433 68.9333 331.167 69.225 330.9 69.575C330.65 69.9083 330.45 70.1917 330.3 70.425C329.533 69.975 328.75 69.4417 327.95 68.825C327.167 68.1917 326.45 67.5417 325.8 66.875V70.825H323.225V67.05C322.592 67.7167 321.883 68.35 321.1 68.95C320.333 69.55 319.575 70.0667 318.825 70.5C318.675 70.2667 318.45 69.9833 318.15 69.65C317.867 69.3 317.583 69.0083 317.3 68.775V71.375ZM322.5 56.825H326.525V55.225H322.5V56.825Z" fill="#383D43"/>
<path d="M122.84 77.456C122.84 77.456 122.789 77.2787 122.688 76.924C122.587 76.5187 122.485 76.1387 122.384 75.784C122.283 75.3787 122.232 75.176 122.232 75.176C127.755 73.2507 132.239 70.8693 135.684 68.032C139.18 65.144 141.739 61.7493 143.36 57.848C144.981 53.9467 145.792 49.5133 145.792 44.548C145.792 40.2413 145.361 36.72 144.5 33.984C143.639 31.248 142.448 29.2213 140.928 27.904C139.408 26.5867 137.609 25.928 135.532 25.928C133.657 25.928 131.935 26.46 130.364 27.524C128.793 28.5373 127.527 30.0573 126.564 32.084C125.652 34.1107 125.196 36.5933 125.196 39.532C125.196 43.636 126.235 46.7773 128.312 48.956C130.44 51.084 133.1 52.148 136.292 52.148C138.369 52.148 140.32 51.6667 142.144 50.704C144.019 49.7413 145.741 48.3227 147.312 46.448C147.312 46.448 147.413 46.4987 147.616 46.6C147.869 46.7013 148.097 46.828 148.3 46.98C148.553 47.0813 148.68 47.132 148.68 47.132C148.68 47.132 148.604 47.132 148.452 47.132C148.3 47.132 148.224 47.132 148.224 47.132C146.704 49.868 144.753 51.9707 142.372 53.44C140.041 54.9093 137.331 55.644 134.24 55.644C131.403 55.644 128.819 55.036 126.488 53.82C124.157 52.5533 122.308 50.7547 120.94 48.424C119.623 46.0427 118.964 43.2053 118.964 39.912C118.964 36.568 119.699 33.6547 121.168 31.172C122.688 28.6387 124.689 26.688 127.172 25.32C129.705 23.9013 132.517 23.192 135.608 23.192C140.776 23.192 144.829 25.0667 147.768 28.816C150.707 32.5147 152.176 37.6827 152.176 44.32C152.176 49.488 151.087 54.276 148.908 58.684C146.729 63.092 143.461 66.9173 139.104 70.16C134.797 73.4027 129.376 75.8347 122.84 77.456ZM159.118 77.456C159.118 77.456 159.067 77.2787 158.966 76.924C158.865 76.5187 158.763 76.1387 158.662 75.784C158.561 75.3787 158.51 75.176 158.51 75.176C164.033 73.2507 168.517 70.8693 171.962 68.032C175.458 65.144 178.017 61.7493 179.638 57.848C181.259 53.9467 182.07 49.5133 182.07 44.548C182.07 40.2413 181.639 36.72 180.778 33.984C179.917 31.248 178.726 29.2213 177.206 27.904C175.686 26.5867 173.887 25.928 171.81 25.928C169.935 25.928 168.213 26.46 166.642 27.524C165.071 28.5373 163.805 30.0573 162.842 32.084C161.93 34.1107 161.474 36.5933 161.474 39.532C161.474 43.636 162.513 46.7773 164.59 48.956C166.718 51.084 169.378 52.148 172.57 52.148C174.647 52.148 176.598 51.6667 178.422 50.704C180.297 49.7413 182.019 48.3227 183.59 46.448C183.59 46.448 183.691 46.4987 183.894 46.6C184.147 46.7013 184.375 46.828 184.578 46.98C184.831 47.0813 184.958 47.132 184.958 47.132C184.958 47.132 184.882 47.132 184.73 47.132C184.578 47.132 184.502 47.132 184.502 47.132C182.982 49.868 181.031 51.9707 178.65 53.44C176.319 54.9093 173.609 55.644 170.518 55.644C167.681 55.644 165.097 55.036 162.766 53.82C160.435 52.5533 158.586 50.7547 157.218 48.424C155.901 46.0427 155.242 43.2053 155.242 39.912C155.242 36.568 155.977 33.6547 157.446 31.172C158.966 28.6387 160.967 26.688 163.45 25.32C165.983 23.9013 168.795 23.192 171.886 23.192C177.054 23.192 181.107 25.0667 184.046 28.816C186.985 32.5147 188.454 37.6827 188.454 44.32C188.454 49.488 187.365 54.276 185.186 58.684C183.007 63.092 179.739 66.9173 175.382 70.16C171.075 73.4027 165.654 75.8347 159.118 77.456ZM190.956 77.12C190.263 77.12 189.676 76.88 189.196 76.4C188.716 75.92 188.476 75.3467 188.476 74.68C188.476 73.9867 188.716 73.4 189.196 72.92C189.676 72.44 190.263 72.2 190.956 72.2C191.65 72.2 192.223 72.44 192.676 72.92C193.156 73.4 193.396 73.9867 193.396 74.68C193.396 75.3467 193.156 75.92 192.676 76.4C192.223 76.88 191.65 77.12 190.956 77.12ZM197.54 77.456C197.54 77.456 197.489 77.2787 197.388 76.924C197.287 76.5187 197.185 76.1387 197.084 75.784C196.983 75.3787 196.932 75.176 196.932 75.176C202.455 73.2507 206.939 70.8693 210.384 68.032C213.88 65.144 216.439 61.7493 218.06 57.848C219.681 53.9467 220.492 49.5133 220.492 44.548C220.492 40.2413 220.061 36.72 219.2 33.984C218.339 31.248 217.148 29.2213 215.628 27.904C214.108 26.5867 212.309 25.928 210.232 25.928C208.357 25.928 206.635 26.46 205.064 27.524C203.493 28.5373 202.227 30.0573 201.264 32.084C200.352 34.1107 199.896 36.5933 199.896 39.532C199.896 43.636 200.935 46.7773 203.012 48.956C205.14 51.084 207.8 52.148 210.992 52.148C213.069 52.148 215.02 51.6667 216.844 50.704C218.719 49.7413 220.441 48.3227 222.012 46.448C222.012 46.448 222.113 46.4987 222.316 46.6C222.569 46.7013 222.797 46.828 223 46.98C223.253 47.0813 223.38 47.132 223.38 47.132C223.38 47.132 223.304 47.132 223.152 47.132C223 47.132 222.924 47.132 222.924 47.132C221.404 49.868 219.453 51.9707 217.072 53.44C214.741 54.9093 212.031 55.644 208.94 55.644C206.103 55.644 203.519 55.036 201.188 53.82C198.857 52.5533 197.008 50.7547 195.64 48.424C194.323 46.0427 193.664 43.2053 193.664 39.912C193.664 36.568 194.399 33.6547 195.868 31.172C197.388 28.6387 199.389 26.688 201.872 25.32C204.405 23.9013 207.217 23.192 210.308 23.192C215.476 23.192 219.529 25.0667 222.468 28.816C225.407 32.5147 226.876 37.6827 226.876 44.32C226.876 49.488 225.787 54.276 223.608 58.684C221.429 63.092 218.161 66.9173 213.804 70.16C209.497 73.4027 204.076 75.8347 197.54 77.456ZM233.818 77.456C233.818 77.456 233.767 77.2787 233.666 76.924C233.565 76.5187 233.463 76.1387 233.362 75.784C233.261 75.3787 233.21 75.176 233.21 75.176C238.733 73.2507 243.217 70.8693 246.662 68.032C250.158 65.144 252.717 61.7493 254.338 57.848C255.959 53.9467 256.77 49.5133 256.77 44.548C256.77 40.2413 256.339 36.72 255.478 33.984C254.617 31.248 253.426 29.2213 251.906 27.904C250.386 26.5867 248.587 25.928 246.51 25.928C244.635 25.928 242.913 26.46 241.342 27.524C239.771 28.5373 238.505 30.0573 237.542 32.084C236.63 34.1107 236.174 36.5933 236.174 39.532C236.174 43.636 237.213 46.7773 239.29 48.956C241.418 51.084 244.078 52.148 247.27 52.148C249.347 52.148 251.298 51.6667 253.122 50.704C254.997 49.7413 256.719 48.3227 258.29 46.448C258.29 46.448 258.391 46.4987 258.594 46.6C258.847 46.7013 259.075 46.828 259.278 46.98C259.531 47.0813 259.658 47.132 259.658 47.132C259.658 47.132 259.582 47.132 259.43 47.132C259.278 47.132 259.202 47.132 259.202 47.132C257.682 49.868 255.731 51.9707 253.35 53.44C251.019 54.9093 248.309 55.644 245.218 55.644C242.381 55.644 239.797 55.036 237.466 53.82C235.135 52.5533 233.286 50.7547 231.918 48.424C230.601 46.0427 229.942 43.2053 229.942 39.912C229.942 36.568 230.677 33.6547 232.146 31.172C233.666 28.6387 235.667 26.688 238.15 25.32C240.683 23.9013 243.495 23.192 246.586 23.192C251.754 23.192 255.807 25.0667 258.746 28.816C261.685 32.5147 263.154 37.6827 263.154 44.32C263.154 49.488 262.065 54.276 259.886 58.684C257.707 63.092 254.439 66.9173 250.082 70.16C245.775 73.4027 240.354 75.8347 233.818 77.456ZM270.696 65.4C269.71 65.4 268.763 65.1067 267.856 64.52C266.976 63.9333 266.256 63 265.696 61.72C265.163 60.4133 264.896 58.7333 264.896 56.68C264.896 54.6 265.163 52.92 265.696 51.64C266.256 50.3333 266.976 49.3867 267.856 48.8C268.763 48.2133 269.71 47.92 270.696 47.92C271.71 47.92 272.656 48.2133 273.536 48.8C274.416 49.3867 275.123 50.3333 275.656 51.64C276.216 52.92 276.496 54.6 276.496 56.68C276.496 58.7333 276.216 60.4133 275.656 61.72C275.123 63 274.416 63.9333 273.536 64.52C272.656 65.1067 271.71 65.4 270.696 65.4ZM270.696 64.36C271.256 64.36 271.776 64.1467 272.256 63.72C272.736 63.2667 273.123 62.4933 273.416 61.4C273.71 60.28 273.856 58.7067 273.856 56.68C273.856 54.6267 273.71 53.0533 273.416 51.96C273.123 50.84 272.736 50.0667 272.256 49.64C271.776 49.1867 271.256 48.96 270.696 48.96C270.163 48.96 269.656 49.1733 269.176 49.6C268.696 50.0267 268.296 50.8 267.976 51.92C267.683 53.04 267.536 54.6267 267.536 56.68C267.536 58.7067 267.683 60.28 267.976 61.4C268.296 62.4933 268.696 63.2667 269.176 63.72C269.656 64.1467 270.163 64.36 270.696 64.36ZM271.856 77.64C271.856 77.64 271.763 77.5733 271.576 77.44C271.416 77.3067 271.23 77.16 271.016 77C270.83 76.8667 270.736 76.8 270.736 76.8C270.736 76.8 271.003 76.4 271.536 75.6C272.096 74.8 272.843 73.72 273.776 72.36C274.71 71 275.763 69.48 276.936 67.8C278.136 66.0933 279.35 64.3467 280.576 62.56C281.803 60.7733 283.003 59.04 284.176 57.36C285.376 55.6533 286.443 54.12 287.376 52.76C288.31 51.4 289.043 50.32 289.576 49.52C290.136 48.72 290.416 48.32 290.416 48.32C290.416 48.32 290.51 48.4 290.696 48.56C290.91 48.6933 291.11 48.8267 291.296 48.96C291.51 49.0933 291.616 49.16 291.616 49.16C291.616 49.16 291.336 49.56 290.776 50.36C290.216 51.16 289.456 52.24 288.496 53.6C287.563 54.96 286.51 56.4933 285.336 58.2C284.19 59.88 282.99 61.6267 281.736 63.44C280.483 65.2267 279.27 66.9733 278.096 68.68C276.95 70.36 275.896 71.88 274.936 73.24C274.003 74.6 273.256 75.68 272.696 76.48C272.136 77.2533 271.856 77.64 271.856 77.64ZM291.656 76.92C290.643 76.92 289.683 76.6267 288.776 76.04C287.896 75.4533 287.176 74.52 286.616 73.24C286.083 71.9333 285.816 70.2667 285.816 68.24C285.816 66.1333 286.083 64.44 286.616 63.16C287.176 61.88 287.896 60.9467 288.776 60.36C289.683 59.7733 290.643 59.48 291.656 59.48C292.643 59.48 293.576 59.7733 294.456 60.36C295.336 60.9467 296.056 61.88 296.616 63.16C297.176 64.44 297.456 66.1333 297.456 68.24C297.456 70.2667 297.176 71.9333 296.616 73.24C296.056 74.52 295.336 75.4533 294.456 76.04C293.576 76.6267 292.643 76.92 291.656 76.92ZM291.656 75.92C292.19 75.92 292.696 75.7067 293.176 75.28C293.656 74.8267 294.043 74.0533 294.336 72.96C294.63 71.84 294.776 70.2667 294.776 68.24C294.776 66.1867 294.63 64.6 294.336 63.48C294.043 62.36 293.656 61.5867 293.176 61.16C292.696 60.7067 292.19 60.48 291.656 60.48C291.123 60.48 290.603 60.7067 290.096 61.16C289.616 61.5867 289.216 62.36 288.896 63.48C288.603 64.6 288.456 66.1867 288.456 68.24C288.456 70.2667 288.603 71.84 288.896 72.96C289.216 74.0533 289.616 74.8267 290.096 75.28C290.603 75.7067 291.123 75.92 291.656 75.92Z" fill="#1C1D1F"/>
</svg>
