<svg width="319" height="166" viewBox="0 0 319 166" fill="none" xmlns="http://www.w3.org/2000/svg">
<path d="M17.21 160.25C17.19 159.95 17.14 159.58 17.06 159.14C16.98 158.72 16.89 158.31 16.79 157.91C16.69 157.49 16.58 157.16 16.46 156.92H18.44C18.84 156.92 19.12 156.86 19.28 156.74C19.46 156.62 19.55 156.37 19.55 155.99V149.81H13.28C13.22 150.93 12.98 151.82 12.56 152.48C12.16 153.14 11.65 153.61 11.03 153.89C10.41 154.17 9.73 154.31 8.99 154.31H8.06C7.98 153.77 7.85 153.19 7.67 152.57C7.49 151.95 7.32 151.45 7.16 151.07V160.16H3.86V133.73H12.68L14.03 134.87C13.87 135.27 13.63 135.83 13.31 136.55C12.99 137.25 12.64 138.01 12.26 138.83C11.9 139.63 11.55 140.38 11.21 141.08C12.05 140.62 12.89 140.05 13.73 139.37C14.57 138.69 15.37 137.96 16.13 137.18C16.89 136.4 17.57 135.63 18.17 134.87C18.77 134.09 19.23 133.39 19.55 132.77L22.85 133.19C23.23 133.73 23.77 134.36 24.47 135.08C25.19 135.8 25.98 136.52 26.84 137.24C27.7 137.94 28.57 138.58 29.45 139.16C30.33 139.74 31.13 140.17 31.85 140.45C31.61 140.67 31.34 140.96 31.04 141.32C30.74 141.66 30.46 142.02 30.2 142.4C29.94 142.76 29.74 143.07 29.6 143.33C29.2 143.11 28.78 142.86 28.34 142.58C27.9 142.3 27.45 141.99 26.99 141.65V144.26H22.91V146.57H29.93V149.81H22.91V157.28C22.91 158.32 22.61 159.07 22.01 159.53C21.43 160.01 20.54 160.25 19.34 160.25H17.21ZM13.46 158.24C13.14 157.84 12.74 157.42 12.26 156.98C11.78 156.52 11.33 156.16 10.91 155.9C11.53 155.44 12.16 154.89 12.8 154.25C13.46 153.61 14.06 152.94 14.6 152.24C15.16 151.54 15.6 150.89 15.92 150.29L18.74 152.06C18.32 152.82 17.8 153.59 17.18 154.37C16.58 155.13 15.95 155.85 15.29 156.53C14.65 157.21 14.04 157.78 13.46 158.24ZM29 158.21C28.42 157.75 27.8 157.19 27.14 156.53C26.48 155.85 25.84 155.13 25.22 154.37C24.62 153.59 24.1 152.83 23.66 152.09L26.42 150.35C26.76 150.95 27.21 151.6 27.77 152.3C28.33 152.98 28.94 153.64 29.6 154.28C30.28 154.9 30.93 155.43 31.55 155.87C31.13 156.13 30.68 156.49 30.2 156.95C29.74 157.39 29.34 157.81 29 158.21ZM12.83 146.57H19.55V144.26H15.17V142.34C14.85 142.6 14.52 142.85 14.18 143.09C13.86 143.31 13.54 143.52 13.22 143.72C13.08 143.48 12.88 143.2 12.62 142.88C12.36 142.56 12.09 142.25 11.81 141.95C11.55 141.65 11.32 141.41 11.12 141.23C10.94 141.61 10.78 141.95 10.64 142.25C10.5 142.55 10.38 142.78 10.28 142.94C10.8 143.44 11.29 144 11.75 144.62C12.21 145.22 12.57 145.87 12.83 146.57ZM16.52 141.23H26.45C25.41 140.43 24.41 139.57 23.45 138.65C22.51 137.71 21.77 136.86 21.23 136.1C20.67 136.92 19.97 137.78 19.13 138.68C18.31 139.58 17.44 140.43 16.52 141.23ZM7.16 150.95H8.06C8.58 150.95 8.99 150.8 9.29 150.5C9.59 150.18 9.74 149.52 9.74 148.52C9.74 146.6 8.88 144.87 7.16 143.33V150.95ZM7.16 142.91C7.32 142.57 7.52 142.12 7.76 141.56C8 140.98 8.25 140.37 8.51 139.73C8.77 139.09 9.01 138.5 9.23 137.96C9.45 137.4 9.6 136.98 9.68 136.7H7.16V142.91ZM34.91 160.1V139.79H41.12V137.87H33.5V135.05H41.12V132.8H44.6V135.05H49.43V132.8H52.91V135.05H60.47V137.87H52.91V139.79H59.09V160.1H34.91ZM38.36 153.83C39.2 153.43 40.13 152.88 41.15 152.18C42.19 151.48 43.1 150.77 43.88 150.05H39.2V147.65H45.47V146.3C44.65 146.34 43.82 146.38 42.98 146.42C42.16 146.44 41.34 146.44 40.52 146.42C40.48 146.08 40.39 145.65 40.25 145.13C40.11 144.59 39.97 144.19 39.83 143.93C40.85 143.97 41.93 143.98 43.07 143.96C44.23 143.94 45.39 143.88 46.55 143.78C47.71 143.68 48.8 143.56 49.82 143.42C50.84 143.28 51.72 143.11 52.46 142.91L53.81 145.16C53.05 145.36 52.22 145.54 51.32 145.7C50.44 145.84 49.52 145.96 48.56 146.06V147.65H54.77V150.05H50.42C51.18 150.73 52.04 151.39 53 152.03C53.96 152.67 54.84 153.19 55.64 153.59V142.64H38.36V153.83ZM38.36 157.25H55.64V154.04C55.32 154.32 55 154.67 54.68 155.09C54.38 155.49 54.14 155.83 53.96 156.11C53.04 155.57 52.1 154.93 51.14 154.19C50.2 153.43 49.34 152.65 48.56 151.85V156.59H45.47V152.06C44.71 152.86 43.86 153.62 42.92 154.34C42 155.06 41.09 155.68 40.19 156.2C40.01 155.92 39.74 155.58 39.38 155.18C39.04 154.76 38.7 154.41 38.36 154.13V157.25ZM44.6 139.79H49.43V137.87H44.6V139.79ZM81.92 159.29C81.52 158.95 80.93 158.52 80.15 158C79.37 157.46 78.48 156.9 77.48 156.32C76.5 155.72 75.49 155.14 74.45 154.58C73.43 154 72.47 153.5 71.57 153.08C70.67 152.64 69.93 152.32 69.35 152.12L71.66 149.12C72.52 149.44 73.52 149.87 74.66 150.41C75.82 150.95 77.01 151.54 78.23 152.18C79.45 152.82 80.59 153.46 81.65 154.1C82.71 154.72 83.57 155.29 84.23 155.81L81.92 159.29ZM79.85 148.76C79.43 148.42 78.81 148.02 77.99 147.56C77.17 147.1 76.28 146.63 75.32 146.15C74.38 145.67 73.47 145.24 72.59 144.86C71.73 144.48 71.03 144.22 70.49 144.08L72.71 141.11C73.35 141.31 74.09 141.59 74.93 141.95C75.77 142.29 76.63 142.67 77.51 143.09C78.41 143.51 79.25 143.93 80.03 144.35C80.83 144.77 81.48 145.15 81.98 145.49L79.85 148.76ZM82.19 141.83C81.87 141.57 81.41 141.27 80.81 140.93C80.21 140.57 79.54 140.2 78.8 139.82C78.06 139.44 77.31 139.07 76.55 138.71C75.81 138.35 75.11 138.04 74.45 137.78C73.81 137.5 73.28 137.3 72.86 137.18L75.08 134.21C75.7 134.41 76.43 134.69 77.27 135.05C78.13 135.39 79 135.77 79.88 136.19C80.78 136.59 81.61 137 82.37 137.42C83.15 137.82 83.78 138.18 84.26 138.5L82.19 141.83ZM97.28 157.58C97.02 157.14 96.67 156.61 96.23 155.99C95.81 155.37 95.38 154.88 94.94 154.52C96.44 153.86 97.94 153.04 99.44 152.06C100.94 151.08 102.37 149.98 103.73 148.76C105.11 147.52 106.36 146.22 107.48 144.86C108.62 143.48 109.58 142.08 110.36 140.66C109.38 140.72 108.3 140.79 107.12 140.87C105.96 140.95 104.8 141.03 103.64 141.11C102.5 141.17 101.46 141.24 100.52 141.32C99.6 141.38 98.89 141.43 98.39 141.47L97.97 137.66C98.47 137.66 99.22 137.65 100.22 137.63C101.22 137.61 102.34 137.58 103.58 137.54C104.82 137.48 106.05 137.42 107.27 137.36C108.51 137.3 109.62 137.23 110.6 137.15C111.6 137.05 112.34 136.96 112.82 136.88L115.25 138.44C114.77 139.84 114.15 141.22 113.39 142.58C112.63 143.92 111.77 145.21 110.81 146.45C111.51 146.99 112.25 147.6 113.03 148.28C113.83 148.96 114.61 149.66 115.37 150.38C116.13 151.1 116.83 151.79 117.47 152.45C118.11 153.11 118.64 153.7 119.06 154.22C118.56 154.54 118.03 154.96 117.47 155.48C116.91 155.98 116.42 156.46 116 156.92C115.62 156.38 115.13 155.77 114.53 155.09C113.93 154.39 113.28 153.69 112.58 152.99C111.9 152.27 111.21 151.58 110.51 150.92C109.81 150.24 109.15 149.64 108.53 149.12C106.87 150.9 105.07 152.51 103.13 153.95C101.19 155.39 99.24 156.6 97.28 157.58ZM133.58 158.93V134.75H137.24V143.84L138.59 141.92C139.07 142.26 139.7 142.69 140.48 143.21C141.28 143.71 142.13 144.23 143.03 144.77C143.93 145.29 144.8 145.77 145.64 146.21C146.48 146.65 147.19 146.98 147.77 147.2C147.53 147.42 147.25 147.74 146.93 148.16C146.63 148.56 146.35 148.98 146.09 149.42C145.83 149.84 145.62 150.2 145.46 150.5C144.98 150.24 144.38 149.91 143.66 149.51C142.96 149.09 142.21 148.63 141.41 148.13C140.63 147.63 139.87 147.14 139.13 146.66C138.41 146.16 137.78 145.71 137.24 145.31V158.93H133.58Z" fill="#383D43"/>
<path d="M243.1 109.93C241.5 109.93 240.2 109.77 239.2 109.45C238.22 109.13 237.5 108.59 237.04 107.83C236.6 107.07 236.38 106.04 236.38 104.74V84.91L240.31 85.15C240.27 85.49 240.23 86.06 240.19 86.86C240.15 87.66 240.12 88.52 240.1 89.44C240.08 90.18 240.06 90.99 240.04 91.87C240.04 92.75 240.04 93.72 240.04 94.78V104.02C240.04 104.9 240.28 105.5 240.76 105.82C241.26 106.14 242.12 106.3 243.34 106.3C245.3 106.3 247.15 105.93 248.89 105.19C250.65 104.45 252.17 103.53 253.45 102.43C253.47 102.81 253.51 103.27 253.57 103.81C253.65 104.33 253.73 104.83 253.81 105.31C253.91 105.77 253.99 106.13 254.05 106.39C252.61 107.43 250.93 108.28 249.01 108.94C247.11 109.6 245.14 109.93 243.1 109.93ZM273.04 110.83C271.5 110.75 270.29 110.27 269.41 109.39C268.53 108.51 268.1 107.44 268.12 106.18C268.14 105 268.65 104.01 269.65 103.21C270.67 102.41 272.09 102.04 273.91 102.1C274.19 102.12 274.47 102.14 274.75 102.16C275.03 102.16 275.3 102.18 275.56 102.22V95.41H278.98V103.03C280.12 103.41 281.2 103.9 282.22 104.5C283.26 105.1 284.26 105.78 285.22 106.54C284.86 106.86 284.47 107.32 284.05 107.92C283.65 108.52 283.35 109.05 283.15 109.51C282.51 108.93 281.84 108.39 281.14 107.89C280.44 107.37 279.71 106.92 278.95 106.54C278.75 109.58 276.78 111.01 273.04 110.83ZM264.76 105.58C264.44 105.3 263.98 104.98 263.38 104.62C262.78 104.26 262.23 103.99 261.73 103.81C262.97 102.39 264.08 100.73 265.06 98.83C266.04 96.91 266.85 94.92 267.49 92.86C266.49 93 265.56 93.12 264.7 93.22C263.84 93.32 263.15 93.39 262.63 93.43L262.18 90.1C262.88 90.1 263.78 90.05 264.88 89.95C266 89.85 267.17 89.71 268.39 89.53C268.61 88.59 268.78 87.67 268.9 86.77C269.02 85.85 269.1 84.96 269.14 84.1L272.47 84.58C272.31 86.08 272.1 87.54 271.84 88.96C272.54 88.82 273.21 88.68 273.85 88.54C274.51 88.38 275.1 88.23 275.62 88.09L276.07 91.24C275.45 91.42 274.7 91.6 273.82 91.78C272.96 91.96 272.04 92.13 271.06 92.29C270.38 94.81 269.5 97.19 268.42 99.43C267.34 101.67 266.12 103.72 264.76 105.58ZM283.81 96.01C283.49 95.67 283.06 95.29 282.52 94.87C281.98 94.45 281.4 94.03 280.78 93.61C280.16 93.19 279.54 92.81 278.92 92.47C278.32 92.13 277.79 91.88 277.33 91.72L279.1 89.08C279.58 89.28 280.14 89.55 280.78 89.89C281.42 90.21 282.07 90.58 282.73 91C283.39 91.4 284 91.8 284.56 92.2C285.12 92.6 285.58 92.97 285.94 93.31L283.81 96.01ZM273.31 107.83C274.07 107.83 274.63 107.66 274.99 107.32C275.37 106.96 275.56 106.34 275.56 105.46V105.25C274.94 105.11 274.3 105.02 273.64 104.98C272.96 104.96 272.41 105.07 271.99 105.31C271.59 105.55 271.38 105.89 271.36 106.33C271.34 106.77 271.5 107.13 271.84 107.41C272.18 107.69 272.67 107.83 273.31 107.83ZM301.48 105.97C300.48 106.53 299.54 106.76 298.66 106.66C297.78 106.54 297 105.97 296.32 104.95C295.7 103.99 295.13 102.86 294.61 101.56C294.09 100.26 293.64 98.88 293.26 97.42C292.9 95.96 292.62 94.5 292.42 93.04C292.24 91.58 292.16 90.21 292.18 88.93L295.84 88.96C295.78 89.94 295.81 91.01 295.93 92.17C296.05 93.33 296.24 94.5 296.5 95.68C296.76 96.86 297.07 97.96 297.43 98.98C297.79 99.98 298.18 100.82 298.6 101.5C298.88 101.98 299.18 102.26 299.5 102.34C299.84 102.4 300.2 102.31 300.58 102.07C301.06 101.75 301.56 101.31 302.08 100.75C302.62 100.19 303.07 99.65 303.43 99.13C303.53 99.43 303.69 99.77 303.91 100.15C304.15 100.53 304.4 100.9 304.66 101.26C304.94 101.62 305.19 101.91 305.41 102.13C304.87 102.93 304.25 103.67 303.55 104.35C302.87 105.03 302.18 105.57 301.48 105.97ZM312.82 100.36C312.62 99.78 312.31 99.06 311.89 98.2C311.47 97.34 310.99 96.45 310.45 95.53C309.91 94.59 309.37 93.73 308.83 92.95C308.29 92.15 307.79 91.53 307.33 91.09L310.21 89.26C310.71 89.76 311.26 90.43 311.86 91.27C312.48 92.11 313.08 93.01 313.66 93.97C314.26 94.91 314.79 95.83 315.25 96.73C315.71 97.61 316.04 98.36 316.24 98.98C315.62 99.1 314.99 99.29 314.35 99.55C313.73 99.81 313.22 100.08 312.82 100.36Z" fill="#383D43"/>
<mask id="path-3-outside-1_2203_246" maskUnits="userSpaceOnUse" x="4" y="53" width="226" height="59" fill="black">
<rect fill="white" x="4" y="53" width="226" height="59"/>
<path d="M27.14 108.596C23.7573 108.596 20.886 108.399 18.526 108.006C16.2053 107.613 14.4353 106.865 13.216 105.764C12.036 104.623 11.446 102.971 11.446 100.808C11.446 99.5493 11.7803 98.2513 12.449 96.914C13.1177 95.5767 13.8257 94.2 14.573 92.784C12.921 92.9807 11.446 92.6463 10.148 91.781C8.85 90.8763 7.94533 89.598 7.434 87.946C6.962 86.294 6.92267 84.583 7.316 82.813C7.86667 80.571 8.88933 78.8403 10.384 77.621C11.918 76.3623 13.5307 75.5953 15.222 75.32C15.812 75.202 16.402 75.143 16.992 75.143V71.721C14.9467 71.839 12.9407 71.9373 10.974 72.016C9.00733 72.0553 7.21767 72.075 5.605 72.075L5.133 65.703C6.39167 65.821 8.083 65.88 10.207 65.88C12.331 65.8407 14.5927 65.7423 16.992 65.585V58.505H23.541V65.054C25.3897 64.8573 27.081 64.6607 28.615 64.464C30.1883 64.228 31.4667 63.9723 32.45 63.697L32.627 70.128C31.447 70.3247 30.0703 70.5213 28.497 70.718C26.963 70.8753 25.311 71.0523 23.541 71.249V77.444C24.5637 78.4273 25.2127 79.6467 25.488 81.102C25.8027 82.5573 25.6847 84.0913 25.134 85.704C24.7013 87.002 24.131 88.2017 23.423 89.303C22.715 90.365 21.9873 91.3877 21.24 92.371C20.532 93.315 19.9223 94.259 19.411 95.203C18.939 96.1077 18.703 97.0517 18.703 98.035C18.703 99.097 18.8997 99.9033 19.293 100.454C19.7257 100.965 20.532 101.319 21.712 101.516C22.9313 101.673 24.7407 101.752 27.14 101.752C30.208 101.752 32.6663 101.516 34.515 101.044C36.3637 100.572 37.7403 99.805 38.645 98.743C39.5497 97.681 40.1397 96.2847 40.415 94.554C40.6903 92.784 40.8083 90.6207 40.769 88.064C41.241 88.3393 41.9293 88.6343 42.834 88.949C43.7387 89.2637 44.663 89.539 45.607 89.775C46.5903 89.9717 47.3573 90.0897 47.908 90.129C47.908 94.4557 47.259 97.9957 45.961 100.749C44.663 103.463 42.4997 105.449 39.471 106.708C36.4817 107.967 32.3713 108.596 27.14 108.596ZM49.796 84.937C48.9307 83.9537 47.7703 82.8327 46.315 81.574C44.8597 80.276 43.3257 79.0567 41.713 77.916C40.1003 76.736 38.6057 75.8117 37.229 75.143L41.654 70.01C42.9127 70.6 44.3287 71.4457 45.902 72.547C47.4753 73.609 49.0093 74.7497 50.504 75.969C52.038 77.149 53.3163 78.2503 54.339 79.273L49.796 84.937ZM13.688 87.297C14.3567 87.769 15.163 87.769 16.107 87.297C17.051 86.825 17.7197 85.881 18.113 84.465C18.3883 83.4423 18.349 82.5967 17.995 81.928C17.641 81.22 17.1887 80.7873 16.638 80.63C15.93 80.394 15.1827 80.5513 14.396 81.102C13.6487 81.6133 13.1177 82.6163 12.803 84.111C12.6457 84.8583 12.6457 85.5073 12.803 86.058C12.9997 86.6087 13.2947 87.0217 13.688 87.297ZM77.644 110.248C77.172 109.461 76.5427 108.498 75.756 107.357C74.9693 106.256 74.0647 105.312 73.042 104.525C77.2113 103.345 80.417 101.988 82.659 100.454C84.901 98.8807 86.4547 97.032 87.32 94.908C86.1793 95.5373 84.9207 95.852 83.544 95.852C80.5547 95.852 78.1357 95.026 76.287 93.374C74.4777 91.6827 73.514 89.3817 73.396 86.471C73.3173 84.5043 73.7107 82.754 74.576 81.22C75.4413 79.6467 76.6607 78.4077 78.234 77.503C79.8073 76.5983 81.597 76.146 83.603 76.146C83.9177 76.146 84.193 76.1657 84.429 76.205C84.665 76.205 84.9207 76.2247 85.196 76.264C84.9993 74.966 84.8813 73.5697 84.842 72.075C81.656 72.193 78.5487 72.37 75.52 72.606C72.4913 72.842 69.7183 73.1173 67.201 73.432C64.6837 73.7073 62.599 74.0417 60.947 74.435L59.944 67.591C61.36 67.473 63.3463 67.355 65.903 67.237C68.4597 67.0797 71.3703 66.9223 74.635 66.765C77.939 66.6077 81.3413 66.4503 84.842 66.293V57.679H91.686V65.998C94.754 65.88 97.6843 65.7817 100.477 65.703C103.27 65.585 105.767 65.5063 107.97 65.467C110.173 65.4277 111.903 65.408 113.162 65.408L112.69 72.311C110.409 72.0357 107.38 71.8783 103.604 71.839C99.8673 71.7603 95.8947 71.7603 91.686 71.839C91.7253 73.2157 91.7843 74.612 91.863 76.028C91.9417 77.4047 92.0203 78.7223 92.099 79.981C94.0263 82.2623 94.99 85.291 94.99 89.067C94.99 94.2983 93.4757 98.7037 90.447 102.283C87.4183 105.862 83.1507 108.517 77.644 110.248ZM83.603 89.952C84.7043 89.8733 85.5697 89.4997 86.199 88.831C86.8283 88.1623 87.143 87.297 87.143 86.235C87.143 85.881 87.1037 85.5073 87.025 85.114C86.9857 84.6813 86.9267 84.2487 86.848 83.816C86.022 82.8327 84.9797 82.341 83.721 82.341C82.6197 82.341 81.6953 82.695 80.948 83.403C80.2007 84.111 79.8467 85.0353 79.886 86.176C79.886 87.3167 80.2203 88.2607 80.889 89.008C81.597 89.716 82.5017 90.0307 83.603 89.952ZM102.129 65.172C101.46 63.9133 100.556 62.576 99.415 61.16C98.3137 59.7047 97.291 58.5247 96.347 57.62L99.651 55.142C100.202 55.6533 100.851 56.381 101.598 57.325C102.385 58.2297 103.152 59.1737 103.899 60.157C104.646 61.101 105.217 61.9073 105.61 62.576L102.129 65.172ZM110.271 64.11C109.563 62.8513 108.658 61.5533 107.557 60.216C106.495 58.8393 105.492 57.7183 104.548 56.853L107.852 54.375C108.403 54.8863 109.052 55.5943 109.799 56.499C110.546 57.3643 111.274 58.269 111.982 59.213C112.729 60.1177 113.3 60.9043 113.693 61.573L110.271 64.11ZM141.6 108.596C138.217 108.596 135.346 108.399 132.986 108.006C130.665 107.613 128.895 106.865 127.676 105.764C126.496 104.623 125.906 102.971 125.906 100.808C125.906 99.5493 126.24 98.2513 126.909 96.914C127.578 95.5767 128.286 94.2 129.033 92.784C127.381 92.9807 125.906 92.6463 124.608 91.781C123.31 90.8763 122.405 89.598 121.894 87.946C121.422 86.294 121.383 84.583 121.776 82.813C122.327 80.571 123.349 78.8403 124.844 77.621C126.378 76.3623 127.991 75.5953 129.682 75.32C130.272 75.202 130.862 75.143 131.452 75.143V71.721C129.407 71.839 127.401 71.9373 125.434 72.016C123.467 72.0553 121.678 72.075 120.065 72.075L119.593 65.703C120.852 65.821 122.543 65.88 124.667 65.88C126.791 65.8407 129.053 65.7423 131.452 65.585V58.505H138.001V65.054C139.85 64.8573 141.541 64.6607 143.075 64.464C144.648 64.228 145.927 63.9723 146.91 63.697L147.087 70.128C145.907 70.3247 144.53 70.5213 142.957 70.718C141.423 70.8753 139.771 71.0523 138.001 71.249V77.444C139.024 78.4273 139.673 79.6467 139.948 81.102C140.263 82.5573 140.145 84.0913 139.594 85.704C139.161 87.002 138.591 88.2017 137.883 89.303C137.175 90.365 136.447 91.3877 135.7 92.371C134.992 93.315 134.382 94.259 133.871 95.203C133.399 96.1077 133.163 97.0517 133.163 98.035C133.163 99.097 133.36 99.9033 133.753 100.454C134.186 100.965 134.992 101.319 136.172 101.516C137.391 101.673 139.201 101.752 141.6 101.752C144.668 101.752 147.126 101.516 148.975 101.044C150.824 100.572 152.2 99.805 153.105 98.743C154.01 97.681 154.6 96.2847 154.875 94.554C155.15 92.784 155.268 90.6207 155.229 88.064C155.701 88.3393 156.389 88.6343 157.294 88.949C158.199 89.2637 159.123 89.539 160.067 89.775C161.05 89.9717 161.817 90.0897 162.368 90.129C162.368 94.4557 161.719 97.9957 160.421 100.749C159.123 103.463 156.96 105.449 153.931 106.708C150.942 107.967 146.831 108.596 141.6 108.596ZM164.256 84.937C163.391 83.9537 162.23 82.8327 160.775 81.574C159.32 80.276 157.786 79.0567 156.173 77.916C154.56 76.736 153.066 75.8117 151.689 75.143L156.114 70.01C157.373 70.6 158.789 71.4457 160.362 72.547C161.935 73.609 163.469 74.7497 164.964 75.969C166.498 77.149 167.776 78.2503 168.799 79.273L164.256 84.937ZM128.148 87.297C128.817 87.769 129.623 87.769 130.567 87.297C131.511 86.825 132.18 85.881 132.573 84.465C132.848 83.4423 132.809 82.5967 132.455 81.928C132.101 81.22 131.649 80.7873 131.098 80.63C130.39 80.394 129.643 80.5513 128.856 81.102C128.109 81.6133 127.578 82.6163 127.263 84.111C127.106 84.8583 127.106 85.5073 127.263 86.058C127.46 86.6087 127.755 87.0217 128.148 87.297ZM192.104 110.248C191.632 109.461 191.003 108.498 190.216 107.357C189.429 106.256 188.525 105.312 187.502 104.525C191.671 103.345 194.877 101.988 197.119 100.454C199.361 98.8807 200.915 97.032 201.78 94.908C200.639 95.5373 199.381 95.852 198.004 95.852C195.015 95.852 192.596 95.026 190.747 93.374C188.938 91.6827 187.974 89.3817 187.856 86.471C187.777 84.5043 188.171 82.754 189.036 81.22C189.901 79.6467 191.121 78.4077 192.694 77.503C194.267 76.5983 196.057 76.146 198.063 76.146C198.378 76.146 198.653 76.1657 198.889 76.205C199.125 76.205 199.381 76.2247 199.656 76.264C199.459 74.966 199.341 73.5697 199.302 72.075C196.116 72.193 193.009 72.37 189.98 72.606C186.951 72.842 184.178 73.1173 181.661 73.432C179.144 73.7073 177.059 74.0417 175.407 74.435L174.404 67.591C175.82 67.473 177.806 67.355 180.363 67.237C182.92 67.0797 185.83 66.9223 189.095 66.765C192.399 66.6077 195.801 66.4503 199.302 66.293V57.679H206.146V65.998C209.214 65.88 212.144 65.7817 214.937 65.703C217.73 65.585 220.227 65.5063 222.43 65.467C224.633 65.4277 226.363 65.408 227.622 65.408L227.15 72.311C224.869 72.0357 221.84 71.8783 218.064 71.839C214.327 71.7603 210.355 71.7603 206.146 71.839C206.185 73.2157 206.244 74.612 206.323 76.028C206.402 77.4047 206.48 78.7223 206.559 79.981C208.486 82.2623 209.45 85.291 209.45 89.067C209.45 94.2983 207.936 98.7037 204.907 102.283C201.878 105.862 197.611 108.517 192.104 110.248ZM198.063 89.952C199.164 89.8733 200.03 89.4997 200.659 88.831C201.288 88.1623 201.603 87.297 201.603 86.235C201.603 85.881 201.564 85.5073 201.485 85.114C201.446 84.6813 201.387 84.2487 201.308 83.816C200.482 82.8327 199.44 82.341 198.181 82.341C197.08 82.341 196.155 82.695 195.408 83.403C194.661 84.111 194.307 85.0353 194.346 86.176C194.346 87.3167 194.68 88.2607 195.349 89.008C196.057 89.716 196.962 90.0307 198.063 89.952ZM216.589 65.172C215.92 63.9133 215.016 62.576 213.875 61.16C212.774 59.7047 211.751 58.5247 210.807 57.62L214.111 55.142C214.662 55.6533 215.311 56.381 216.058 57.325C216.845 58.2297 217.612 59.1737 218.359 60.157C219.106 61.101 219.677 61.9073 220.07 62.576L216.589 65.172ZM224.731 64.11C224.023 62.8513 223.118 61.5533 222.017 60.216C220.955 58.8393 219.952 57.7183 219.008 56.853L222.312 54.375C222.863 54.8863 223.512 55.5943 224.259 56.499C225.006 57.3643 225.734 58.269 226.442 59.213C227.189 60.1177 227.76 60.9043 228.153 61.573L224.731 64.11Z"/>
</mask>
<path d="M27.14 108.596C23.7573 108.596 20.886 108.399 18.526 108.006C16.2053 107.613 14.4353 106.865 13.216 105.764C12.036 104.623 11.446 102.971 11.446 100.808C11.446 99.5493 11.7803 98.2513 12.449 96.914C13.1177 95.5767 13.8257 94.2 14.573 92.784C12.921 92.9807 11.446 92.6463 10.148 91.781C8.85 90.8763 7.94533 89.598 7.434 87.946C6.962 86.294 6.92267 84.583 7.316 82.813C7.86667 80.571 8.88933 78.8403 10.384 77.621C11.918 76.3623 13.5307 75.5953 15.222 75.32C15.812 75.202 16.402 75.143 16.992 75.143V71.721C14.9467 71.839 12.9407 71.9373 10.974 72.016C9.00733 72.0553 7.21767 72.075 5.605 72.075L5.133 65.703C6.39167 65.821 8.083 65.88 10.207 65.88C12.331 65.8407 14.5927 65.7423 16.992 65.585V58.505H23.541V65.054C25.3897 64.8573 27.081 64.6607 28.615 64.464C30.1883 64.228 31.4667 63.9723 32.45 63.697L32.627 70.128C31.447 70.3247 30.0703 70.5213 28.497 70.718C26.963 70.8753 25.311 71.0523 23.541 71.249V77.444C24.5637 78.4273 25.2127 79.6467 25.488 81.102C25.8027 82.5573 25.6847 84.0913 25.134 85.704C24.7013 87.002 24.131 88.2017 23.423 89.303C22.715 90.365 21.9873 91.3877 21.24 92.371C20.532 93.315 19.9223 94.259 19.411 95.203C18.939 96.1077 18.703 97.0517 18.703 98.035C18.703 99.097 18.8997 99.9033 19.293 100.454C19.7257 100.965 20.532 101.319 21.712 101.516C22.9313 101.673 24.7407 101.752 27.14 101.752C30.208 101.752 32.6663 101.516 34.515 101.044C36.3637 100.572 37.7403 99.805 38.645 98.743C39.5497 97.681 40.1397 96.2847 40.415 94.554C40.6903 92.784 40.8083 90.6207 40.769 88.064C41.241 88.3393 41.9293 88.6343 42.834 88.949C43.7387 89.2637 44.663 89.539 45.607 89.775C46.5903 89.9717 47.3573 90.0897 47.908 90.129C47.908 94.4557 47.259 97.9957 45.961 100.749C44.663 103.463 42.4997 105.449 39.471 106.708C36.4817 107.967 32.3713 108.596 27.14 108.596ZM49.796 84.937C48.9307 83.9537 47.7703 82.8327 46.315 81.574C44.8597 80.276 43.3257 79.0567 41.713 77.916C40.1003 76.736 38.6057 75.8117 37.229 75.143L41.654 70.01C42.9127 70.6 44.3287 71.4457 45.902 72.547C47.4753 73.609 49.0093 74.7497 50.504 75.969C52.038 77.149 53.3163 78.2503 54.339 79.273L49.796 84.937ZM13.688 87.297C14.3567 87.769 15.163 87.769 16.107 87.297C17.051 86.825 17.7197 85.881 18.113 84.465C18.3883 83.4423 18.349 82.5967 17.995 81.928C17.641 81.22 17.1887 80.7873 16.638 80.63C15.93 80.394 15.1827 80.5513 14.396 81.102C13.6487 81.6133 13.1177 82.6163 12.803 84.111C12.6457 84.8583 12.6457 85.5073 12.803 86.058C12.9997 86.6087 13.2947 87.0217 13.688 87.297ZM77.644 110.248C77.172 109.461 76.5427 108.498 75.756 107.357C74.9693 106.256 74.0647 105.312 73.042 104.525C77.2113 103.345 80.417 101.988 82.659 100.454C84.901 98.8807 86.4547 97.032 87.32 94.908C86.1793 95.5373 84.9207 95.852 83.544 95.852C80.5547 95.852 78.1357 95.026 76.287 93.374C74.4777 91.6827 73.514 89.3817 73.396 86.471C73.3173 84.5043 73.7107 82.754 74.576 81.22C75.4413 79.6467 76.6607 78.4077 78.234 77.503C79.8073 76.5983 81.597 76.146 83.603 76.146C83.9177 76.146 84.193 76.1657 84.429 76.205C84.665 76.205 84.9207 76.2247 85.196 76.264C84.9993 74.966 84.8813 73.5697 84.842 72.075C81.656 72.193 78.5487 72.37 75.52 72.606C72.4913 72.842 69.7183 73.1173 67.201 73.432C64.6837 73.7073 62.599 74.0417 60.947 74.435L59.944 67.591C61.36 67.473 63.3463 67.355 65.903 67.237C68.4597 67.0797 71.3703 66.9223 74.635 66.765C77.939 66.6077 81.3413 66.4503 84.842 66.293V57.679H91.686V65.998C94.754 65.88 97.6843 65.7817 100.477 65.703C103.27 65.585 105.767 65.5063 107.97 65.467C110.173 65.4277 111.903 65.408 113.162 65.408L112.69 72.311C110.409 72.0357 107.38 71.8783 103.604 71.839C99.8673 71.7603 95.8947 71.7603 91.686 71.839C91.7253 73.2157 91.7843 74.612 91.863 76.028C91.9417 77.4047 92.0203 78.7223 92.099 79.981C94.0263 82.2623 94.99 85.291 94.99 89.067C94.99 94.2983 93.4757 98.7037 90.447 102.283C87.4183 105.862 83.1507 108.517 77.644 110.248ZM83.603 89.952C84.7043 89.8733 85.5697 89.4997 86.199 88.831C86.8283 88.1623 87.143 87.297 87.143 86.235C87.143 85.881 87.1037 85.5073 87.025 85.114C86.9857 84.6813 86.9267 84.2487 86.848 83.816C86.022 82.8327 84.9797 82.341 83.721 82.341C82.6197 82.341 81.6953 82.695 80.948 83.403C80.2007 84.111 79.8467 85.0353 79.886 86.176C79.886 87.3167 80.2203 88.2607 80.889 89.008C81.597 89.716 82.5017 90.0307 83.603 89.952ZM102.129 65.172C101.46 63.9133 100.556 62.576 99.415 61.16C98.3137 59.7047 97.291 58.5247 96.347 57.62L99.651 55.142C100.202 55.6533 100.851 56.381 101.598 57.325C102.385 58.2297 103.152 59.1737 103.899 60.157C104.646 61.101 105.217 61.9073 105.61 62.576L102.129 65.172ZM110.271 64.11C109.563 62.8513 108.658 61.5533 107.557 60.216C106.495 58.8393 105.492 57.7183 104.548 56.853L107.852 54.375C108.403 54.8863 109.052 55.5943 109.799 56.499C110.546 57.3643 111.274 58.269 111.982 59.213C112.729 60.1177 113.3 60.9043 113.693 61.573L110.271 64.11ZM141.6 108.596C138.217 108.596 135.346 108.399 132.986 108.006C130.665 107.613 128.895 106.865 127.676 105.764C126.496 104.623 125.906 102.971 125.906 100.808C125.906 99.5493 126.24 98.2513 126.909 96.914C127.578 95.5767 128.286 94.2 129.033 92.784C127.381 92.9807 125.906 92.6463 124.608 91.781C123.31 90.8763 122.405 89.598 121.894 87.946C121.422 86.294 121.383 84.583 121.776 82.813C122.327 80.571 123.349 78.8403 124.844 77.621C126.378 76.3623 127.991 75.5953 129.682 75.32C130.272 75.202 130.862 75.143 131.452 75.143V71.721C129.407 71.839 127.401 71.9373 125.434 72.016C123.467 72.0553 121.678 72.075 120.065 72.075L119.593 65.703C120.852 65.821 122.543 65.88 124.667 65.88C126.791 65.8407 129.053 65.7423 131.452 65.585V58.505H138.001V65.054C139.85 64.8573 141.541 64.6607 143.075 64.464C144.648 64.228 145.927 63.9723 146.91 63.697L147.087 70.128C145.907 70.3247 144.53 70.5213 142.957 70.718C141.423 70.8753 139.771 71.0523 138.001 71.249V77.444C139.024 78.4273 139.673 79.6467 139.948 81.102C140.263 82.5573 140.145 84.0913 139.594 85.704C139.161 87.002 138.591 88.2017 137.883 89.303C137.175 90.365 136.447 91.3877 135.7 92.371C134.992 93.315 134.382 94.259 133.871 95.203C133.399 96.1077 133.163 97.0517 133.163 98.035C133.163 99.097 133.36 99.9033 133.753 100.454C134.186 100.965 134.992 101.319 136.172 101.516C137.391 101.673 139.201 101.752 141.6 101.752C144.668 101.752 147.126 101.516 148.975 101.044C150.824 100.572 152.2 99.805 153.105 98.743C154.01 97.681 154.6 96.2847 154.875 94.554C155.15 92.784 155.268 90.6207 155.229 88.064C155.701 88.3393 156.389 88.6343 157.294 88.949C158.199 89.2637 159.123 89.539 160.067 89.775C161.05 89.9717 161.817 90.0897 162.368 90.129C162.368 94.4557 161.719 97.9957 160.421 100.749C159.123 103.463 156.96 105.449 153.931 106.708C150.942 107.967 146.831 108.596 141.6 108.596ZM164.256 84.937C163.391 83.9537 162.23 82.8327 160.775 81.574C159.32 80.276 157.786 79.0567 156.173 77.916C154.56 76.736 153.066 75.8117 151.689 75.143L156.114 70.01C157.373 70.6 158.789 71.4457 160.362 72.547C161.935 73.609 163.469 74.7497 164.964 75.969C166.498 77.149 167.776 78.2503 168.799 79.273L164.256 84.937ZM128.148 87.297C128.817 87.769 129.623 87.769 130.567 87.297C131.511 86.825 132.18 85.881 132.573 84.465C132.848 83.4423 132.809 82.5967 132.455 81.928C132.101 81.22 131.649 80.7873 131.098 80.63C130.39 80.394 129.643 80.5513 128.856 81.102C128.109 81.6133 127.578 82.6163 127.263 84.111C127.106 84.8583 127.106 85.5073 127.263 86.058C127.46 86.6087 127.755 87.0217 128.148 87.297ZM192.104 110.248C191.632 109.461 191.003 108.498 190.216 107.357C189.429 106.256 188.525 105.312 187.502 104.525C191.671 103.345 194.877 101.988 197.119 100.454C199.361 98.8807 200.915 97.032 201.78 94.908C200.639 95.5373 199.381 95.852 198.004 95.852C195.015 95.852 192.596 95.026 190.747 93.374C188.938 91.6827 187.974 89.3817 187.856 86.471C187.777 84.5043 188.171 82.754 189.036 81.22C189.901 79.6467 191.121 78.4077 192.694 77.503C194.267 76.5983 196.057 76.146 198.063 76.146C198.378 76.146 198.653 76.1657 198.889 76.205C199.125 76.205 199.381 76.2247 199.656 76.264C199.459 74.966 199.341 73.5697 199.302 72.075C196.116 72.193 193.009 72.37 189.98 72.606C186.951 72.842 184.178 73.1173 181.661 73.432C179.144 73.7073 177.059 74.0417 175.407 74.435L174.404 67.591C175.82 67.473 177.806 67.355 180.363 67.237C182.92 67.0797 185.83 66.9223 189.095 66.765C192.399 66.6077 195.801 66.4503 199.302 66.293V57.679H206.146V65.998C209.214 65.88 212.144 65.7817 214.937 65.703C217.73 65.585 220.227 65.5063 222.43 65.467C224.633 65.4277 226.363 65.408 227.622 65.408L227.15 72.311C224.869 72.0357 221.84 71.8783 218.064 71.839C214.327 71.7603 210.355 71.7603 206.146 71.839C206.185 73.2157 206.244 74.612 206.323 76.028C206.402 77.4047 206.48 78.7223 206.559 79.981C208.486 82.2623 209.45 85.291 209.45 89.067C209.45 94.2983 207.936 98.7037 204.907 102.283C201.878 105.862 197.611 108.517 192.104 110.248ZM198.063 89.952C199.164 89.8733 200.03 89.4997 200.659 88.831C201.288 88.1623 201.603 87.297 201.603 86.235C201.603 85.881 201.564 85.5073 201.485 85.114C201.446 84.6813 201.387 84.2487 201.308 83.816C200.482 82.8327 199.44 82.341 198.181 82.341C197.08 82.341 196.155 82.695 195.408 83.403C194.661 84.111 194.307 85.0353 194.346 86.176C194.346 87.3167 194.68 88.2607 195.349 89.008C196.057 89.716 196.962 90.0307 198.063 89.952ZM216.589 65.172C215.92 63.9133 215.016 62.576 213.875 61.16C212.774 59.7047 211.751 58.5247 210.807 57.62L214.111 55.142C214.662 55.6533 215.311 56.381 216.058 57.325C216.845 58.2297 217.612 59.1737 218.359 60.157C219.106 61.101 219.677 61.9073 220.07 62.576L216.589 65.172ZM224.731 64.11C224.023 62.8513 223.118 61.5533 222.017 60.216C220.955 58.8393 219.952 57.7183 219.008 56.853L222.312 54.375C222.863 54.8863 223.512 55.5943 224.259 56.499C225.006 57.3643 225.734 58.269 226.442 59.213C227.189 60.1177 227.76 60.9043 228.153 61.573L224.731 64.11Z" fill="white"/>
<path d="M18.526 108.006L18.3589 108.992L18.3616 108.992L18.526 108.006ZM13.216 105.764L12.521 106.483L12.5332 106.495L12.5457 106.506L13.216 105.764ZM12.449 96.914L11.5546 96.4668V96.4668L12.449 96.914ZM14.573 92.784L15.4574 93.2508L16.3467 91.5658L14.4548 91.791L14.573 92.784ZM10.148 91.781L9.57621 92.6014L9.58469 92.6073L9.5933 92.613L10.148 91.781ZM7.434 87.946L6.47248 88.2207L6.47548 88.2312L6.47871 88.2417L7.434 87.946ZM7.316 82.813L6.34486 82.5745L6.34222 82.5852L6.33981 82.5961L7.316 82.813ZM10.384 77.621L11.0161 78.3959L11.0183 78.3941L10.384 77.621ZM15.222 75.32L15.3827 76.307L15.4005 76.3041L15.4181 76.3006L15.222 75.32ZM16.992 75.143V76.143H17.992V75.143H16.992ZM16.992 71.721H17.992V70.6616L16.9344 70.7227L16.992 71.721ZM10.974 72.016L10.994 73.0158L11.004 73.0156L11.014 73.0152L10.974 72.016ZM5.605 72.075L4.60773 72.1489L4.67633 73.075H5.605V72.075ZM5.133 65.703L5.22634 64.7074L4.04833 64.5969L4.13573 65.7769L5.133 65.703ZM10.207 65.88V66.88H10.2163L10.2255 66.8798L10.207 65.88ZM16.992 65.585L17.0574 66.5829L17.992 66.5216V65.585H16.992ZM16.992 58.505V57.505H15.992V58.505H16.992ZM23.541 58.505H24.541V57.505H23.541V58.505ZM23.541 65.054H22.541V66.166L23.6468 66.0484L23.541 65.054ZM28.615 64.464L28.7422 65.4559L28.7528 65.4545L28.7633 65.4529L28.615 64.464ZM32.45 63.697L33.4496 63.6695L33.4144 62.3885L32.1804 62.734L32.45 63.697ZM32.627 70.128L32.7914 71.1144L33.6506 70.9712L33.6266 70.1005L32.627 70.128ZM28.497 70.718L28.599 71.7128L28.61 71.7116L28.621 71.7103L28.497 70.718ZM23.541 71.249L23.4306 70.2551L22.541 70.354V71.249H23.541ZM23.541 77.444H22.541V77.8697L22.8479 78.1648L23.541 77.444ZM25.488 81.102L24.5054 81.2879L24.5078 81.3006L24.5106 81.3133L25.488 81.102ZM25.134 85.704L24.1876 85.3808L24.1853 85.3878L25.134 85.704ZM23.423 89.303L24.2551 89.8577L24.2597 89.8508L24.2642 89.8438L23.423 89.303ZM21.24 92.371L20.4438 91.7659L20.44 91.771L21.24 92.371ZM19.411 95.203L18.5317 94.7267L18.528 94.7335L18.5244 94.7404L19.411 95.203ZM19.293 100.454L18.4793 101.035L18.5031 101.069L18.5296 101.1L19.293 100.454ZM21.712 101.516L21.5476 102.502L21.5658 102.505L21.584 102.508L21.712 101.516ZM34.515 101.044L34.2676 100.075V100.075L34.515 101.044ZM38.645 98.743L37.8838 98.0945L38.645 98.743ZM40.415 94.554L41.4026 94.7111L41.4031 94.7077L40.415 94.554ZM40.769 88.064L41.2729 87.2002L39.7419 86.3071L39.7691 88.0794L40.769 88.064ZM42.834 88.949L42.5055 89.8935L42.5055 89.8935L42.834 88.949ZM45.607 89.775L45.3645 90.7451L45.3876 90.7509L45.4109 90.7556L45.607 89.775ZM47.908 90.129H48.908V89.1979L47.9792 89.1315L47.908 90.129ZM45.961 100.749L46.8632 101.18L46.8655 101.175L45.961 100.749ZM39.471 106.708L39.0872 105.785L39.0829 105.786L39.471 106.708ZM49.796 84.937L49.0453 85.5976L49.8315 86.491L50.5761 85.5627L49.796 84.937ZM46.315 81.574L45.6494 82.3203L45.6551 82.3254L45.6609 82.3304L46.315 81.574ZM41.713 77.916L41.1225 78.723L41.129 78.7278L41.1355 78.7324L41.713 77.916ZM37.229 75.143L36.4716 74.4901L35.6229 75.4746L36.7921 76.0425L37.229 75.143ZM41.654 70.01L42.0784 69.1045L41.3918 68.7827L40.8966 69.3571L41.654 70.01ZM45.902 72.547L45.3285 73.3662L45.3355 73.3711L45.3425 73.3758L45.902 72.547ZM50.504 75.969L49.8719 76.7439L49.883 76.7529L49.8943 76.7616L50.504 75.969ZM54.339 79.273L55.1191 79.8987L55.6798 79.1996L55.0461 78.5659L54.339 79.273ZM13.688 87.297L14.2647 86.48L14.2615 86.4778L13.688 87.297ZM16.107 87.297L16.5542 88.1914V88.1914L16.107 87.297ZM18.113 84.465L19.0765 84.7327L19.0786 84.725L18.113 84.465ZM17.995 81.928L17.1006 82.3752L17.1058 82.3856L17.1112 82.3959L17.995 81.928ZM16.638 80.63L16.3218 81.5787L16.3424 81.5856L16.3633 81.5915L16.638 80.63ZM14.396 81.102L14.9607 81.9274L14.9695 81.9212L14.396 81.102ZM12.803 84.111L11.8245 83.905V83.905L12.803 84.111ZM12.803 86.058L11.8415 86.3327L11.8504 86.3638L11.8613 86.3943L12.803 86.058ZM27.14 108.596V107.596C23.7918 107.596 20.979 107.401 18.6904 107.02L18.526 108.006L18.3616 108.992C20.7931 109.398 23.7229 109.596 27.14 109.596V108.596ZM18.526 108.006L18.6931 107.02C16.4829 106.645 14.9159 105.952 13.8863 105.022L13.216 105.764L12.5457 106.506C13.9547 107.779 15.9278 108.58 18.3589 108.992L18.526 108.006ZM13.216 105.764L13.911 105.045C12.9823 104.147 12.446 102.79 12.446 100.808H11.446H10.446C10.446 103.152 11.0897 105.099 12.521 106.483L13.216 105.764ZM11.446 100.808H12.446C12.446 99.7312 12.7312 98.5856 13.3434 97.3612L12.449 96.914L11.5546 96.4668C10.8294 97.9171 10.446 99.3675 10.446 100.808H11.446ZM12.449 96.914L13.3434 97.3612C14.0086 96.0309 14.7132 94.6607 15.4574 93.2508L14.573 92.784L13.6886 92.3172C12.9381 93.7393 12.2267 95.1225 11.5546 96.4668L12.449 96.914ZM14.573 92.784L14.4548 91.791C13.0221 91.9616 11.7889 91.6731 10.7027 90.9489L10.148 91.781L9.5933 92.613C11.1031 93.6196 12.8199 93.9998 14.6912 93.777L14.573 92.784ZM10.148 91.781L10.7198 90.9606C9.62175 90.1953 8.84128 89.1106 8.38929 87.6503L7.434 87.946L6.47871 88.2417C7.04939 90.0854 8.07825 91.5574 9.57621 92.6014L10.148 91.781ZM7.434 87.946L8.39552 87.6713C7.97182 86.1883 7.93291 84.6467 8.29219 83.0299L7.316 82.813L6.33981 82.5961C5.91242 84.5193 5.95218 86.3997 6.47248 88.2207L7.434 87.946ZM7.316 82.813L8.28714 83.0515C8.79652 80.9776 9.72087 79.4525 11.0161 78.3959L10.384 77.621L9.75187 76.8461C8.0578 78.2281 6.93682 80.1644 6.34486 82.5745L7.316 82.813ZM10.384 77.621L11.0183 78.3941C12.4378 77.2293 13.8912 76.5498 15.3827 76.307L15.222 75.32L15.0613 74.333C13.1702 74.6409 11.3982 75.4953 9.74968 76.8479L10.384 77.621ZM15.222 75.32L15.4181 76.3006C15.9448 76.1952 16.4691 76.143 16.992 76.143V75.143V74.143C16.3349 74.143 15.6792 74.2088 15.0259 74.3394L15.222 75.32ZM16.992 75.143H17.992V71.721H16.992H15.992V75.143H16.992ZM16.992 71.721L16.9344 70.7227C14.8947 70.8403 12.8946 70.9384 10.934 71.0168L10.974 72.016L11.014 73.0152C12.9867 72.9363 14.9986 72.8377 17.0496 72.7193L16.992 71.721ZM10.974 72.016L10.954 71.0162C8.99262 71.0554 7.20975 71.075 5.605 71.075V72.075V73.075C7.22559 73.075 9.02205 73.0552 10.994 73.0158L10.974 72.016ZM5.605 72.075L6.60227 72.0011L6.13027 65.6291L5.133 65.703L4.13573 65.7769L4.60773 72.1489L5.605 72.075ZM5.133 65.703L5.03966 66.6986C6.34313 66.8208 8.06969 66.88 10.207 66.88V65.88V64.88C8.09631 64.88 6.44021 64.8212 5.22634 64.7074L5.133 65.703ZM10.207 65.88L10.2255 66.8798C12.367 66.8402 14.6445 66.7411 17.0574 66.5829L16.992 65.585L16.9266 64.5871C14.5409 64.7436 12.295 64.8412 10.1885 64.8802L10.207 65.88ZM16.992 65.585H17.992V58.505H16.992H15.992V65.585H16.992ZM16.992 58.505V59.505H23.541V58.505V57.505H16.992V58.505ZM23.541 58.505H22.541V65.054H23.541H24.541V58.505H23.541ZM23.541 65.054L23.6468 66.0484C25.5012 65.8511 27.1998 65.6536 28.7422 65.4559L28.615 64.464L28.4878 63.4721C26.9622 63.6677 25.2781 63.8636 23.4352 64.0596L23.541 65.054ZM28.615 64.464L28.7633 65.4529C30.3577 65.2138 31.6809 64.9508 32.7196 64.66L32.45 63.697L32.1804 62.734C31.2524 62.9939 30.0189 63.2422 28.4667 63.4751L28.615 64.464ZM32.45 63.697L31.4504 63.7245L31.6274 70.1555L32.627 70.128L33.6266 70.1005L33.4496 63.6695L32.45 63.697ZM32.627 70.128L32.4626 69.1416C31.2995 69.3355 29.9368 69.5302 28.373 69.7257L28.497 70.718L28.621 71.7103C30.2038 71.5124 31.5945 71.3139 32.7914 71.1144L32.627 70.128ZM28.497 70.718L28.395 69.7232C26.8578 69.8809 25.203 70.0582 23.4306 70.2551L23.541 71.249L23.6514 72.2429C25.4191 72.0465 27.0682 71.8698 28.599 71.7128L28.497 70.718ZM23.541 71.249H22.541V77.444H23.541H24.541V71.249H23.541ZM23.541 77.444L22.8479 78.1648C23.714 78.9976 24.2669 80.027 24.5054 81.2879L25.488 81.102L26.4706 80.9161C26.1584 79.2663 25.4133 77.857 24.2341 76.7232L23.541 77.444ZM25.488 81.102L24.5106 81.3133C24.7815 82.5665 24.6882 83.9149 24.1877 85.3809L25.134 85.704L26.0804 86.0271C26.6811 84.2678 26.8238 82.5481 26.4654 80.8907L25.488 81.102ZM25.134 85.704L24.1853 85.3878C23.7778 86.6103 23.2428 87.7341 22.5818 88.7622L23.423 89.303L24.2642 89.8438C25.0192 88.6693 25.6249 87.3937 26.0827 86.0202L25.134 85.704ZM23.423 89.303L22.591 88.7483C21.894 89.7937 21.1783 90.7995 20.4438 91.7659L21.24 92.371L22.0362 92.9761C22.7964 91.9758 23.536 90.9363 24.2551 89.8577L23.423 89.303ZM21.24 92.371L20.44 91.771C19.7054 92.7504 19.0686 93.7356 18.5317 94.7267L19.411 95.203L20.2903 95.6793C20.7761 94.7824 21.3586 93.8796 22.04 92.971L21.24 92.371ZM19.411 95.203L18.5244 94.7404C17.9808 95.7823 17.703 96.8844 17.703 98.035H18.703H19.703C19.703 97.2189 19.8972 96.433 20.2976 95.6656L19.411 95.203ZM18.703 98.035H17.703C17.703 99.1953 17.9135 100.243 18.4793 101.035L19.293 100.454L20.1067 99.8728C19.8858 99.5635 19.703 98.9987 19.703 98.035H18.703ZM19.293 100.454L18.5296 101.1C19.1965 101.888 20.2985 102.294 21.5476 102.502L21.712 101.516L21.8764 100.53C20.7655 100.344 20.2548 100.043 20.0564 99.8081L19.293 100.454ZM21.712 101.516L21.584 102.508C22.8688 102.674 24.73 102.752 27.14 102.752V101.752V100.752C24.7513 100.752 22.9939 100.673 21.84 100.524L21.712 101.516ZM27.14 101.752V102.752C30.2475 102.752 32.7992 102.514 34.7624 102.013L34.515 101.044L34.2676 100.075C32.5335 100.518 30.1685 100.752 27.14 100.752V101.752ZM34.515 101.044L34.7624 102.013C36.7394 101.508 38.3263 100.659 39.4062 99.3915L38.645 98.743L37.8838 98.0945C37.1544 98.9508 35.988 99.6358 34.2676 100.075L34.515 101.044ZM38.645 98.743L39.4062 99.3915C40.4571 98.1579 41.1057 96.5772 41.4026 94.7111L40.415 94.554L39.4274 94.3969C39.1736 95.9922 38.6423 97.2041 37.8838 98.0945L38.645 98.743ZM40.415 94.554L41.4031 94.7077C41.69 92.8637 41.8088 90.6401 41.7689 88.0486L40.769 88.064L39.7691 88.0794C39.8079 90.6013 39.6907 92.7043 39.4269 94.4003L40.415 94.554ZM40.769 88.064L40.2651 88.9278C40.8193 89.2511 41.578 89.5709 42.5055 89.8935L42.834 88.949L43.1625 88.0045C42.2806 87.6978 41.6627 87.4276 41.2729 87.2002L40.769 88.064ZM42.834 88.949L42.5055 89.8935C43.4389 90.2181 44.3919 90.502 45.3645 90.7451L45.607 89.775L45.8495 88.8049C44.9341 88.576 44.0385 88.3092 43.1625 88.0045L42.834 88.949ZM45.607 89.775L45.4109 90.7556C46.408 90.955 47.2233 91.0826 47.8368 91.1265L47.908 90.129L47.9792 89.1315C47.4914 89.0967 46.7727 88.9883 45.8031 88.7944L45.607 89.775ZM47.908 90.129H46.908C46.908 94.3661 46.2709 97.7465 45.0565 100.323L45.961 100.749L46.8655 101.175C48.2471 98.2448 48.908 94.5453 48.908 90.129H47.908ZM45.961 100.749L45.0589 100.318C43.8771 102.788 41.9106 104.611 39.0872 105.785L39.471 106.708L39.8548 107.631C43.0887 106.287 45.4489 104.138 46.8631 101.18L45.961 100.749ZM39.471 106.708L39.0829 105.786C36.2688 106.971 32.31 107.596 27.14 107.596V108.596V109.596C32.4327 109.596 36.6945 108.962 39.8591 107.63L39.471 106.708ZM49.796 84.937L50.5467 84.2764C49.6411 83.2472 48.4445 82.0936 46.9692 80.8176L46.315 81.574L45.6609 82.3304C47.0962 83.5717 48.2203 84.6601 49.0453 85.5976L49.796 84.937ZM46.315 81.574L46.9806 80.8277C45.4969 79.5044 43.9334 78.2617 42.2905 77.0996L41.713 77.916L41.1355 78.7324C42.7179 79.8517 44.2225 81.0476 45.6494 82.3203L46.315 81.574ZM41.713 77.916L42.3035 77.109C40.6563 75.9037 39.1099 74.9448 37.6659 74.2435L37.229 75.143L36.7921 76.0425C38.1015 76.6785 39.5444 77.5683 41.1225 78.723L41.713 77.916ZM37.229 75.143L37.9864 75.7959L42.4114 70.6629L41.654 70.01L40.8966 69.3571L36.4716 74.4901L37.229 75.143ZM41.654 70.01L41.2296 70.9155C42.4207 71.4738 43.7859 72.2864 45.3285 73.3662L45.902 72.547L46.4755 71.7278C44.8714 70.6049 43.4046 69.7262 42.0784 69.1045L41.654 70.01ZM45.902 72.547L45.3425 73.3758C46.8904 74.4207 48.4002 75.5433 49.8719 76.7439L50.504 75.969L51.1361 75.1941C49.6185 73.956 48.0602 72.7973 46.4615 71.7182L45.902 72.547ZM50.504 75.969L49.8943 76.7616C51.4047 77.9235 52.648 78.9963 53.6319 79.9801L54.339 79.273L55.0461 78.5659C53.9846 77.5044 52.6713 76.3745 51.1137 75.1764L50.504 75.969ZM54.339 79.273L53.5589 78.6473L49.0159 84.3113L49.796 84.937L50.5761 85.5627L55.1191 79.8987L54.339 79.273ZM13.688 87.297L13.1113 88.114C14.1707 88.8617 15.3922 88.7725 16.5542 88.1914L16.107 87.297L15.6598 86.4026C14.9338 86.7655 14.5427 86.6763 14.2647 86.48L13.688 87.297ZM16.107 87.297L16.5542 88.1914C17.8383 87.5494 18.6382 86.3106 19.0765 84.7326L18.113 84.465L17.1495 84.1974C16.8011 85.4514 16.2637 86.1006 15.6598 86.4026L16.107 87.297ZM18.113 84.465L19.0786 84.725C19.3933 83.5561 19.3913 82.4283 18.8788 81.4601L17.995 81.928L17.1112 82.3959C17.3067 82.7651 17.3834 83.3285 17.1474 84.205L18.113 84.465ZM17.995 81.928L18.8894 81.4808C18.4596 80.6211 17.8236 79.9287 16.9127 79.6685L16.638 80.63L16.3633 81.5915C16.5537 81.6459 16.8224 81.8189 17.1006 82.3752L17.995 81.928ZM16.638 80.63L16.9542 79.6813C15.8623 79.3173 14.7867 79.6078 13.8225 80.2828L14.396 81.102L14.9695 81.9212C15.5786 81.4948 15.9977 81.4707 16.3218 81.5787L16.638 80.63ZM14.396 81.102L13.8313 80.2767C12.7659 81.0057 12.1581 82.32 11.8245 83.905L12.803 84.111L13.7816 84.317C14.0772 82.9126 14.5315 82.221 14.9607 81.9273L14.396 81.102ZM12.803 84.111L11.8245 83.905C11.6443 84.7606 11.627 85.5822 11.8415 86.3327L12.803 86.058L13.7645 85.7833C13.6643 85.4325 13.647 84.9561 13.7816 84.317L12.803 84.111ZM12.803 86.058L11.8613 86.3943C12.1122 87.097 12.5172 87.6981 13.1145 88.1162L13.688 87.297L14.2615 86.4778C14.0721 86.3452 13.8871 86.1203 13.7447 85.7217L12.803 86.058ZM77.644 110.248L76.7865 110.762L77.192 111.438L77.9438 111.202L77.644 110.248ZM75.756 107.357L76.5792 106.789L76.5745 106.782L76.5697 106.776L75.756 107.357ZM73.042 104.525L72.7697 103.563L70.8553 104.105L72.4323 105.318L73.042 104.525ZM82.659 100.454L83.2237 101.279L83.2334 101.273L82.659 100.454ZM87.32 94.908L88.2461 95.2853L89.3131 92.6662L86.8369 94.0324L87.32 94.908ZM76.287 93.374L75.6041 94.1045L75.6123 94.1122L75.6207 94.1197L76.287 93.374ZM73.396 86.471L72.3968 86.511L72.3968 86.5115L73.396 86.471ZM74.576 81.22L75.447 81.7113L75.4522 81.7019L74.576 81.22ZM78.234 77.503L78.7325 78.3699V78.3699L78.234 77.503ZM84.429 76.205L84.2646 77.1914L84.3462 77.205H84.429V76.205ZM85.196 76.264L85.0546 77.254L86.3862 77.4442L86.1847 76.1142L85.196 76.264ZM84.842 72.075L85.8417 72.0487L85.8151 71.0383L84.805 71.0757L84.842 72.075ZM75.52 72.606L75.4423 71.609V71.609L75.52 72.606ZM67.201 73.432L67.3097 74.4261L67.3174 74.4252L67.325 74.4243L67.201 73.432ZM60.947 74.435L59.9576 74.58L60.116 75.6608L61.1786 75.4078L60.947 74.435ZM59.944 67.591L59.861 66.5945L58.8002 66.6828L58.9546 67.736L59.944 67.591ZM65.903 67.237L65.9491 68.2359L65.9568 68.2356L65.9644 68.2351L65.903 67.237ZM74.635 66.765L74.5874 65.7661L74.5869 65.7662L74.635 66.765ZM84.842 66.293L84.8869 67.292L85.842 67.2491V66.293H84.842ZM84.842 57.679V56.679H83.842V57.679H84.842ZM91.686 57.679H92.686V56.679H91.686V57.679ZM91.686 65.998H90.686V67.0372L91.7244 66.9973L91.686 65.998ZM100.477 65.703L100.505 66.7027L100.519 66.7021L100.477 65.703ZM107.97 65.467L107.952 64.4672V64.4672L107.97 65.467ZM113.162 65.408L114.16 65.4762L114.233 64.408H113.162V65.408ZM112.69 72.311L112.57 73.3038L113.616 73.43L113.688 72.3792L112.69 72.311ZM103.604 71.839L103.583 72.8388L103.594 72.8389L103.604 71.839ZM91.686 71.839L91.6673 70.8392L90.6576 70.858L90.6864 71.8676L91.686 71.839ZM91.863 76.028L90.8645 76.0835L90.8646 76.0851L91.863 76.028ZM92.099 79.981L91.101 80.0434L91.1216 80.3736L91.3351 80.6264L92.099 79.981ZM90.447 102.283L89.6836 101.637V101.637L90.447 102.283ZM83.603 89.952L83.6742 90.9495L83.603 89.952ZM86.199 88.831L86.9272 89.5164V89.5164L86.199 88.831ZM87.025 85.114L86.0291 85.2045L86.0339 85.2577L86.0444 85.3101L87.025 85.114ZM86.848 83.816L87.8319 83.6371L87.7844 83.376L87.6137 83.1728L86.848 83.816ZM80.948 83.403L80.2603 82.677V82.677L80.948 83.403ZM79.886 86.176H80.886V86.1588L80.8854 86.1415L79.886 86.176ZM80.889 89.008L80.1438 89.6748L80.1623 89.6955L80.1819 89.7151L80.889 89.008ZM102.129 65.172L101.246 65.6412L101.793 66.6703L102.727 65.9736L102.129 65.172ZM99.415 61.16L98.6176 61.7634L98.6267 61.7755L98.6362 61.7873L99.415 61.16ZM96.347 57.62L95.747 56.82L94.8045 57.5269L95.6551 58.342L96.347 57.62ZM99.651 55.142L100.331 54.4092L99.7193 53.8408L99.051 54.342L99.651 55.142ZM101.598 57.325L100.814 57.9457L100.828 57.9638L100.843 57.9812L101.598 57.325ZM103.899 60.157L103.103 60.7621L103.109 60.77L103.115 60.7777L103.899 60.157ZM105.61 62.576L106.208 63.3776L106.926 62.8417L106.472 62.069L105.61 62.576ZM110.271 64.11L109.399 64.6003L109.955 65.5888L110.867 64.9133L110.271 64.11ZM107.557 60.216L106.765 60.8268L106.775 60.8394L106.785 60.8517L107.557 60.216ZM104.548 56.853L103.948 56.053L102.984 56.776L103.872 57.5901L104.548 56.853ZM107.852 54.375L108.532 53.6422L107.92 53.0738L107.252 53.575L107.852 54.375ZM109.799 56.499L109.028 57.1359L109.035 57.1443L109.042 57.1526L109.799 56.499ZM111.982 59.213L111.182 59.813L111.196 59.8318L111.211 59.8499L111.982 59.213ZM113.693 61.573L114.289 62.3763L115.011 61.8409L114.555 61.066L113.693 61.573ZM77.644 110.248L78.5015 109.734C78.0147 108.922 77.3725 107.94 76.5792 106.789L75.756 107.357L74.9328 107.925C75.7128 109.056 76.3293 110.001 76.7865 110.762L77.644 110.248ZM75.756 107.357L76.5697 106.776C75.7287 105.598 74.7562 104.582 73.6517 103.732L73.042 104.525L72.4323 105.318C73.3732 106.041 74.21 106.913 74.9423 107.938L75.756 107.357ZM73.042 104.525L73.3143 105.487C77.5336 104.293 80.8553 102.9 83.2237 101.279L82.659 100.454L82.0943 99.6287C79.9787 101.076 76.8891 102.397 72.7697 103.563L73.042 104.525ZM82.659 100.454L83.2334 101.273C85.6017 99.6106 87.2953 97.6191 88.2461 95.2853L87.32 94.908L86.3939 94.5307C85.6141 96.4449 84.2003 98.1507 82.0846 99.6354L82.659 100.454ZM87.32 94.908L86.8369 94.0324C85.8526 94.5755 84.7616 94.852 83.544 94.852V95.852V96.852C85.0797 96.852 86.506 96.4992 87.8031 95.7836L87.32 94.908ZM83.544 95.852V94.852C80.7473 94.852 78.5826 94.0843 76.9533 92.6283L76.287 93.374L75.6207 94.1197C77.6887 95.9677 80.362 96.852 83.544 96.852V95.852ZM76.287 93.374L76.9699 92.6435C75.3861 91.163 74.5045 89.1283 74.3952 86.4305L73.396 86.471L72.3968 86.5115C72.5235 89.6351 73.5692 92.2024 75.6041 94.1045L76.287 93.374ZM73.396 86.471L74.3952 86.431C74.3231 84.6275 74.6833 83.0651 75.447 81.7113L74.576 81.22L73.705 80.7287C72.738 82.4429 72.3116 84.3812 72.3968 86.511L73.396 86.471ZM74.576 81.22L75.4522 81.7019C76.2283 80.2909 77.3161 79.1843 78.7325 78.3699L78.234 77.503L77.7355 76.6361C76.0052 77.631 74.6544 79.0024 73.6998 80.7381L74.576 81.22ZM78.234 77.503L78.7325 78.3699C80.1386 77.5614 81.7531 77.146 83.603 77.146V76.146V75.146C81.4409 75.146 79.4761 75.6353 77.7355 76.6361L78.234 77.503ZM83.603 76.146V77.146C83.8787 77.146 84.0968 77.1634 84.2646 77.1914L84.429 76.205L84.5934 75.2186C84.2892 75.1679 83.9566 75.146 83.603 75.146V76.146ZM84.429 76.205V77.205C84.6102 77.205 84.8181 77.2202 85.0546 77.254L85.196 76.264L85.3374 75.274C85.0233 75.2292 84.7198 75.205 84.429 75.205V76.205ZM85.196 76.264L86.1847 76.1142C85.995 74.8623 85.88 73.5076 85.8417 72.0487L84.842 72.075L83.8423 72.1013C83.8826 73.6318 84.0036 75.0697 84.2073 76.4138L85.196 76.264ZM84.842 72.075L84.805 71.0757C81.6061 71.1942 78.4852 71.3719 75.4423 71.609L75.52 72.606L75.5977 73.603C78.6122 73.3681 81.7059 73.1918 84.879 73.0743L84.842 72.075ZM75.52 72.606L75.4423 71.609C72.4011 71.846 69.6124 72.1228 67.077 72.4397L67.201 73.432L67.325 74.4243C69.8243 74.1119 72.5816 73.838 75.5977 73.603L75.52 72.606ZM67.201 73.432L67.0923 72.4379C64.5515 72.7158 62.4223 73.0558 60.7154 73.4622L60.947 74.435L61.1786 75.4078C62.7757 75.0275 64.8158 74.6988 67.3097 74.4261L67.201 73.432ZM60.947 74.435L61.9364 74.29L60.9334 67.446L59.944 67.591L58.9546 67.736L59.9576 74.58L60.947 74.435ZM59.944 67.591L60.027 68.5875C61.4247 68.4711 63.3967 68.3537 65.9491 68.2359L65.903 67.237L65.8569 66.2381C63.296 66.3563 61.2953 66.4749 59.861 66.5945L59.944 67.591ZM65.903 67.237L65.9644 68.2351C68.5157 68.0781 71.4218 67.921 74.6831 67.7638L74.635 66.765L74.5869 65.7662C71.3189 65.9236 68.4037 66.0812 65.8416 66.2389L65.903 67.237ZM74.635 66.765L74.6826 67.7639C77.9856 67.6066 81.3871 67.4493 84.8869 67.292L84.842 66.293L84.7971 65.294C81.2956 65.4514 77.8924 65.6088 74.5874 65.7661L74.635 66.765ZM84.842 66.293H85.842V57.679H84.842H83.842V66.293H84.842ZM84.842 57.679V58.679H91.686V57.679V56.679H84.842V57.679ZM91.686 57.679H90.686V65.998H91.686H92.686V57.679H91.686ZM91.686 65.998L91.7244 66.9973C94.7893 66.8794 97.7162 66.7812 100.505 66.7026L100.477 65.703L100.449 64.7034C97.6524 64.7822 94.7187 64.8806 91.6476 64.9987L91.686 65.998ZM100.477 65.703L100.519 66.7021C103.306 66.5844 105.795 66.506 107.988 66.4668L107.97 65.467L107.952 64.4672C105.74 64.5067 103.234 64.5856 100.435 64.7039L100.477 65.703ZM107.97 65.467L107.988 66.4668C110.188 66.4275 111.912 66.408 113.162 66.408V65.408V64.408C111.895 64.408 110.157 64.4278 107.952 64.4672L107.97 65.467ZM113.162 65.408L112.164 65.3398L111.692 72.2428L112.69 72.311L113.688 72.3792L114.16 65.4762L113.162 65.408ZM112.69 72.311L112.81 71.3182C110.477 71.0366 107.407 70.8786 103.614 70.8391L103.604 71.839L103.594 72.8389C107.353 72.8781 110.341 73.0347 112.57 73.3038L112.69 72.311ZM103.604 71.839L103.625 70.8392C99.8736 70.7602 95.8876 70.7603 91.6673 70.8392L91.686 71.839L91.7047 72.8388C95.9017 72.7604 99.8611 72.7604 103.583 72.8388L103.604 71.839ZM91.686 71.839L90.6864 71.8676C90.726 73.2535 90.7854 74.6588 90.8645 76.0835L91.863 76.028L92.8615 75.9725C92.7833 74.5652 92.7247 73.1779 92.6856 71.8104L91.686 71.839ZM91.863 76.028L90.8646 76.0851C90.9434 77.4633 91.0222 78.7828 91.101 80.0434L92.099 79.981L93.0971 79.9186C93.0185 78.6619 92.9399 77.346 92.8614 75.9709L91.863 76.028ZM92.099 79.981L91.3351 80.6264C93.0732 82.6836 93.99 85.4631 93.99 89.067H94.99H95.99C95.99 85.1189 94.9795 81.841 92.8629 79.3356L92.099 79.981ZM94.99 89.067H93.99C93.99 94.091 92.5416 98.2594 89.6836 101.637L90.447 102.283L91.2104 102.929C94.4097 99.1479 95.99 94.5056 95.99 89.067H94.99ZM90.447 102.283L89.6836 101.637C86.8027 105.042 82.7121 107.607 77.3442 109.294L77.644 110.248L77.9438 111.202C83.5893 109.428 88.034 106.683 91.2104 102.929L90.447 102.283ZM83.603 89.952L83.6742 90.9495C84.9724 90.8567 86.0923 90.4035 86.9272 89.5164L86.199 88.831L85.4708 88.1456C85.0471 88.5958 84.4362 88.8899 83.5318 88.9545L83.603 89.952ZM86.199 88.831L86.9272 89.5164C87.7584 88.6332 88.143 87.509 88.143 86.235H87.143H86.143C86.143 87.085 85.8983 87.6914 85.4708 88.1456L86.199 88.831ZM87.143 86.235H88.143C88.143 85.8071 88.0955 85.3674 88.0056 84.9179L87.025 85.114L86.0444 85.3101C86.1118 85.6472 86.143 85.9549 86.143 86.235H87.143ZM87.025 85.114L88.0209 85.0235C87.9788 84.5608 87.9158 84.0987 87.8319 83.6371L86.848 83.816L85.8641 83.9949C85.9375 84.3987 85.9925 84.8018 86.0291 85.2045L87.025 85.114ZM86.848 83.816L87.6137 83.1728C86.6022 81.9686 85.2819 81.341 83.721 81.341V82.341V83.341C84.6774 83.341 85.4418 83.6968 86.0823 84.4592L86.848 83.816ZM83.721 82.341V81.341C82.3834 81.341 81.2071 81.78 80.2603 82.677L80.948 83.403L81.6357 84.129C82.1836 83.61 82.8559 83.341 83.721 83.341V82.341ZM80.948 83.403L80.2603 82.677C79.2808 83.6049 78.8386 84.8182 78.8866 86.2105L79.886 86.176L80.8854 86.1415C80.8548 85.2525 81.1205 84.6171 81.6357 84.129L80.948 83.403ZM79.886 86.176H78.886C78.886 87.5265 79.2884 88.7188 80.1438 89.6748L80.889 89.008L81.6342 88.3412C81.1523 87.8025 80.886 87.1068 80.886 86.176H79.886ZM80.889 89.008L80.1819 89.7151C81.1175 90.6507 82.317 91.0464 83.6742 90.9495L83.603 89.952L83.5318 88.9545C82.6863 89.0149 82.0765 88.7813 81.5961 88.3009L80.889 89.008ZM102.129 65.172L103.012 64.7028C102.307 63.3755 101.364 61.9852 100.194 60.5327L99.415 61.16L98.6362 61.7873C99.7475 63.1668 100.614 64.4512 101.246 65.6412L102.129 65.172ZM99.415 61.16L100.212 60.5566C99.0906 59.0742 98.0328 57.8505 97.0389 56.898L96.347 57.62L95.6551 58.342C96.5492 59.1988 97.5367 60.3352 98.6176 61.7634L99.415 61.16ZM96.347 57.62L96.947 58.42L100.251 55.942L99.651 55.142L99.051 54.342L95.747 56.82L96.347 57.62ZM99.651 55.142L98.9706 55.8748C99.4685 56.3372 100.082 57.0209 100.814 57.9457L101.598 57.325L102.382 56.7043C101.619 55.7411 100.935 54.9695 100.331 54.4092L99.651 55.142ZM101.598 57.325L100.843 57.9812C101.615 58.8688 102.368 59.7957 103.103 60.7621L103.899 60.157L104.695 59.5519C103.935 58.5516 103.154 57.5905 102.353 56.6688L101.598 57.325ZM103.899 60.157L103.115 60.7777C103.847 61.703 104.387 62.4693 104.748 63.083L105.61 62.576L106.472 62.069C106.046 61.3453 105.445 60.499 104.683 59.5363L103.899 60.157ZM105.61 62.576L105.012 61.7744L101.531 64.3704L102.129 65.172L102.727 65.9736L106.208 63.3776L105.61 62.576ZM110.271 64.11L111.143 63.6197C110.401 62.3008 109.461 60.9544 108.329 59.5803L107.557 60.216L106.785 60.8517C107.856 62.1523 108.725 63.4019 109.399 64.6003L110.271 64.11ZM107.557 60.216L108.349 59.6052C107.263 58.1981 106.222 57.0308 105.224 56.1158L104.548 56.853L103.872 57.5901C104.762 58.4059 105.727 59.4806 106.765 60.8268L107.557 60.216ZM104.548 56.853L105.148 57.653L108.452 55.175L107.852 54.375L107.252 53.575L103.948 56.053L104.548 56.853ZM107.852 54.375L107.172 55.1078C107.677 55.5775 108.295 56.2486 109.028 57.1359L109.799 56.499L110.57 55.8621C109.808 54.9401 109.128 54.1952 108.532 53.6422L107.852 54.375ZM109.799 56.499L109.042 57.1526C109.774 58 110.487 58.8868 111.182 59.813L111.982 59.213L112.782 58.613C112.061 57.6512 111.319 56.7286 110.556 55.8454L109.799 56.499ZM111.982 59.213L111.211 59.8499C111.94 60.7322 112.474 61.4738 112.831 62.08L113.693 61.573L114.555 61.066C114.125 60.3349 113.519 59.5032 112.753 58.5761L111.982 59.213ZM113.693 61.573L113.097 60.7697L109.675 63.3067L110.271 64.11L110.867 64.9133L114.289 62.3763L113.693 61.573ZM132.986 108.006L132.819 108.992L132.822 108.992L132.986 108.006ZM127.676 105.764L126.981 106.483L126.993 106.495L127.006 106.506L127.676 105.764ZM126.909 96.914L126.015 96.4668V96.4668L126.909 96.914ZM129.033 92.784L129.917 93.2508L130.807 91.5658L128.915 91.791L129.033 92.784ZM124.608 91.781L124.036 92.6014L124.045 92.6073L124.053 92.613L124.608 91.781ZM121.894 87.946L120.932 88.2207L120.935 88.2312L120.939 88.2417L121.894 87.946ZM121.776 82.813L120.805 82.5745L120.802 82.5852L120.8 82.5961L121.776 82.813ZM124.844 77.621L125.476 78.3959L125.478 78.3941L124.844 77.621ZM129.682 75.32L129.843 76.307L129.86 76.3041L129.878 76.3006L129.682 75.32ZM131.452 75.143V76.143H132.452V75.143H131.452ZM131.452 71.721H132.452V70.6616L131.394 70.7227L131.452 71.721ZM125.434 72.016L125.454 73.0158L125.464 73.0156L125.474 73.0152L125.434 72.016ZM120.065 72.075L119.068 72.1489L119.136 73.075H120.065V72.075ZM119.593 65.703L119.686 64.7074L118.508 64.5969L118.596 65.7769L119.593 65.703ZM124.667 65.88V66.88H124.676L124.686 66.8798L124.667 65.88ZM131.452 65.585L131.517 66.5829L132.452 66.5216V65.585H131.452ZM131.452 58.505V57.505H130.452V58.505H131.452ZM138.001 58.505H139.001V57.505H138.001V58.505ZM138.001 65.054H137.001V66.166L138.107 66.0484L138.001 65.054ZM143.075 64.464L143.202 65.4559L143.213 65.4545L143.223 65.4529L143.075 64.464ZM146.91 63.697L147.91 63.6695L147.874 62.3885L146.64 62.734L146.91 63.697ZM147.087 70.128L147.251 71.1144L148.111 70.9712L148.087 70.1005L147.087 70.128ZM142.957 70.718L143.059 71.7128L143.07 71.7116L143.081 71.7103L142.957 70.718ZM138.001 71.249L137.891 70.2551L137.001 70.354V71.249H138.001ZM138.001 77.444H137.001V77.8697L137.308 78.1648L138.001 77.444ZM139.948 81.102L138.965 81.2879L138.968 81.3006L138.971 81.3133L139.948 81.102ZM139.594 85.704L138.648 85.3808L138.645 85.3878L139.594 85.704ZM137.883 89.303L138.715 89.8577L138.72 89.8508L138.724 89.8438L137.883 89.303ZM135.7 92.371L134.904 91.7659L134.9 91.771L135.7 92.371ZM133.871 95.203L132.992 94.7267L132.988 94.7335L132.984 94.7404L133.871 95.203ZM133.753 100.454L132.939 101.035L132.963 101.069L132.99 101.1L133.753 100.454ZM136.172 101.516L136.008 102.502L136.026 102.505L136.044 102.508L136.172 101.516ZM148.975 101.044L148.728 100.075V100.075L148.975 101.044ZM153.105 98.743L152.344 98.0945L153.105 98.743ZM154.875 94.554L155.863 94.7111L155.863 94.7077L154.875 94.554ZM155.229 88.064L155.733 87.2002L154.202 86.3071L154.229 88.0794L155.229 88.064ZM157.294 88.949L156.965 89.8935V89.8935L157.294 88.949ZM160.067 89.775L159.824 90.7451L159.848 90.7509L159.871 90.7556L160.067 89.775ZM162.368 90.129H163.368V89.1979L162.439 89.1315L162.368 90.129ZM160.421 100.749L161.323 101.18L161.326 101.175L160.421 100.749ZM153.931 106.708L153.547 105.785L153.543 105.786L153.931 106.708ZM164.256 84.937L163.505 85.5976L164.291 86.491L165.036 85.5627L164.256 84.937ZM160.775 81.574L160.109 82.3203L160.115 82.3254L160.121 82.3304L160.775 81.574ZM156.173 77.916L155.582 78.723L155.589 78.7278L155.596 78.7324L156.173 77.916ZM151.689 75.143L150.932 74.4901L150.083 75.4746L151.252 76.0425L151.689 75.143ZM156.114 70.01L156.538 69.1045L155.852 68.7827L155.357 69.3571L156.114 70.01ZM160.362 72.547L159.789 73.3662L159.796 73.3711L159.803 73.3758L160.362 72.547ZM164.964 75.969L164.332 76.7439L164.343 76.7529L164.354 76.7616L164.964 75.969ZM168.799 79.273L169.579 79.8987L170.14 79.1996L169.506 78.5659L168.799 79.273ZM128.148 87.297L128.725 86.48L128.721 86.4778L128.148 87.297ZM130.567 87.297L131.014 88.1914V88.1914L130.567 87.297ZM132.573 84.465L133.537 84.7327L133.539 84.725L132.573 84.465ZM132.455 81.928L131.561 82.3752L131.566 82.3856L131.571 82.3959L132.455 81.928ZM131.098 80.63L130.782 81.5787L130.802 81.5856L130.823 81.5915L131.098 80.63ZM128.856 81.102L129.421 81.9274L129.429 81.9212L128.856 81.102ZM127.263 84.111L126.284 83.905V83.905L127.263 84.111ZM127.263 86.058L126.301 86.3327L126.31 86.3638L126.321 86.3943L127.263 86.058ZM141.6 108.596V107.596C138.252 107.596 135.439 107.401 133.15 107.02L132.986 108.006L132.822 108.992C135.253 109.398 138.183 109.596 141.6 109.596V108.596ZM132.986 108.006L133.153 107.02C130.943 106.645 129.376 105.952 128.346 105.022L127.676 105.764L127.006 106.506C128.415 107.779 130.388 108.58 132.819 108.992L132.986 108.006ZM127.676 105.764L128.371 105.045C127.442 104.147 126.906 102.79 126.906 100.808H125.906H124.906C124.906 103.152 125.55 105.099 126.981 106.483L127.676 105.764ZM125.906 100.808H126.906C126.906 99.7312 127.191 98.5856 127.803 97.3612L126.909 96.914L126.015 96.4668C125.289 97.9171 124.906 99.3675 124.906 100.808H125.906ZM126.909 96.914L127.803 97.3612C128.469 96.0309 129.173 94.6607 129.917 93.2508L129.033 92.784L128.149 92.3172C127.398 93.7393 126.687 95.1225 126.015 96.4668L126.909 96.914ZM129.033 92.784L128.915 91.791C127.482 91.9616 126.249 91.6731 125.163 90.9489L124.608 91.781L124.053 92.613C125.563 93.6196 127.28 93.9998 129.151 93.777L129.033 92.784ZM124.608 91.781L125.18 90.9606C124.082 90.1953 123.301 89.1106 122.849 87.6503L121.894 87.946L120.939 88.2417C121.509 90.0854 122.538 91.5574 124.036 92.6014L124.608 91.781ZM121.894 87.946L122.856 87.6713C122.432 86.1883 122.393 84.6467 122.752 83.0299L121.776 82.813L120.8 82.5961C120.372 84.5193 120.412 86.3997 120.932 88.2207L121.894 87.946ZM121.776 82.813L122.747 83.0515C123.257 80.9776 124.181 79.4525 125.476 78.3959L124.844 77.621L124.212 76.8461C122.518 78.2281 121.397 80.1644 120.805 82.5745L121.776 82.813ZM124.844 77.621L125.478 78.3941C126.898 77.2293 128.351 76.5498 129.843 76.307L129.682 75.32L129.521 74.333C127.63 74.6409 125.858 75.4953 124.21 76.8479L124.844 77.621ZM129.682 75.32L129.878 76.3006C130.405 76.1952 130.929 76.143 131.452 76.143V75.143V74.143C130.795 74.143 130.139 74.2088 129.486 74.3394L129.682 75.32ZM131.452 75.143H132.452V71.721H131.452H130.452V75.143H131.452ZM131.452 71.721L131.394 70.7227C129.355 70.8403 127.355 70.9384 125.394 71.0168L125.434 72.016L125.474 73.0152C127.447 72.9363 129.459 72.8377 131.51 72.7193L131.452 71.721ZM125.434 72.016L125.414 71.0162C123.453 71.0554 121.67 71.075 120.065 71.075V72.075V73.075C121.686 73.075 123.482 73.0552 125.454 73.0158L125.434 72.016ZM120.065 72.075L121.062 72.0011L120.59 65.6291L119.593 65.703L118.596 65.7769L119.068 72.1489L120.065 72.075ZM119.593 65.703L119.5 66.6986C120.803 66.8208 122.53 66.88 124.667 66.88V65.88V64.88C122.556 64.88 120.9 64.8212 119.686 64.7074L119.593 65.703ZM124.667 65.88L124.686 66.8798C126.827 66.8402 129.104 66.7411 131.517 66.5829L131.452 65.585L131.387 64.5871C129.001 64.7436 126.755 64.8412 124.648 64.8802L124.667 65.88ZM131.452 65.585H132.452V58.505H131.452H130.452V65.585H131.452ZM131.452 58.505V59.505H138.001V58.505V57.505H131.452V58.505ZM138.001 58.505H137.001V65.054H138.001H139.001V58.505H138.001ZM138.001 65.054L138.107 66.0484C139.961 65.8511 141.66 65.6536 143.202 65.4559L143.075 64.464L142.948 63.4721C141.422 63.6677 139.738 63.8636 137.895 64.0596L138.001 65.054ZM143.075 64.464L143.223 65.4529C144.818 65.2138 146.141 64.9508 147.18 64.66L146.91 63.697L146.64 62.734C145.712 62.9939 144.479 63.2422 142.927 63.4751L143.075 64.464ZM146.91 63.697L145.91 63.7245L146.087 70.1555L147.087 70.128L148.087 70.1005L147.91 63.6695L146.91 63.697ZM147.087 70.128L146.923 69.1416C145.76 69.3355 144.397 69.5302 142.833 69.7257L142.957 70.718L143.081 71.7103C144.664 71.5124 146.054 71.3139 147.251 71.1144L147.087 70.128ZM142.957 70.718L142.855 69.7232C141.318 69.8809 139.663 70.0582 137.891 70.2551L138.001 71.249L138.111 72.2429C139.879 72.0465 141.528 71.8698 143.059 71.7128L142.957 70.718ZM138.001 71.249H137.001V77.444H138.001H139.001V71.249H138.001ZM138.001 77.444L137.308 78.1648C138.174 78.9976 138.727 80.027 138.965 81.2879L139.948 81.102L140.931 80.9161C140.618 79.2663 139.873 77.857 138.694 76.7232L138.001 77.444ZM139.948 81.102L138.971 81.3133C139.242 82.5665 139.148 83.9149 138.648 85.3809L139.594 85.704L140.54 86.0271C141.141 84.2678 141.284 82.5481 140.925 80.8907L139.948 81.102ZM139.594 85.704L138.645 85.3878C138.238 86.6103 137.703 87.7341 137.042 88.7622L137.883 89.303L138.724 89.8438C139.479 88.6693 140.085 87.3937 140.543 86.0202L139.594 85.704ZM137.883 89.303L137.051 88.7483C136.354 89.7937 135.638 90.7995 134.904 91.7659L135.7 92.371L136.496 92.9761C137.256 91.9758 137.996 90.9363 138.715 89.8577L137.883 89.303ZM135.7 92.371L134.9 91.771C134.165 92.7504 133.529 93.7356 132.992 94.7267L133.871 95.203L134.75 95.6793C135.236 94.7824 135.819 93.8796 136.5 92.971L135.7 92.371ZM133.871 95.203L132.984 94.7404C132.441 95.7823 132.163 96.8844 132.163 98.035H133.163H134.163C134.163 97.2189 134.357 96.433 134.758 95.6656L133.871 95.203ZM133.163 98.035H132.163C132.163 99.1953 132.374 100.243 132.939 101.035L133.753 100.454L134.567 99.8728C134.346 99.5635 134.163 98.9987 134.163 98.035H133.163ZM133.753 100.454L132.99 101.1C133.656 101.888 134.758 102.294 136.008 102.502L136.172 101.516L136.336 100.53C135.226 100.344 134.715 100.043 134.516 99.8081L133.753 100.454ZM136.172 101.516L136.044 102.508C137.329 102.674 139.19 102.752 141.6 102.752V101.752V100.752C139.211 100.752 137.454 100.673 136.3 100.524L136.172 101.516ZM141.6 101.752V102.752C144.708 102.752 147.259 102.514 149.222 102.013L148.975 101.044L148.728 100.075C146.993 100.518 144.628 100.752 141.6 100.752V101.752ZM148.975 101.044L149.222 102.013C151.199 101.508 152.786 100.659 153.866 99.3915L153.105 98.743L152.344 98.0945C151.614 98.9508 150.448 99.6358 148.728 100.075L148.975 101.044ZM153.105 98.743L153.866 99.3915C154.917 98.1579 155.566 96.5772 155.863 94.7111L154.875 94.554L153.887 94.3969C153.634 95.9922 153.102 97.2041 152.344 98.0945L153.105 98.743ZM154.875 94.554L155.863 94.7077C156.15 92.8637 156.269 90.6401 156.229 88.0486L155.229 88.064L154.229 88.0794C154.268 90.6013 154.151 92.7043 153.887 94.4003L154.875 94.554ZM155.229 88.064L154.725 88.9278C155.279 89.2511 156.038 89.5709 156.965 89.8935L157.294 88.949L157.623 88.0045C156.741 87.6978 156.123 87.4276 155.733 87.2002L155.229 88.064ZM157.294 88.949L156.965 89.8935C157.899 90.2181 158.852 90.502 159.824 90.7451L160.067 89.775L160.31 88.8049C159.394 88.576 158.498 88.3092 157.623 88.0045L157.294 88.949ZM160.067 89.775L159.871 90.7556C160.868 90.955 161.683 91.0826 162.297 91.1265L162.368 90.129L162.439 89.1315C161.951 89.0967 161.233 88.9883 160.263 88.7944L160.067 89.775ZM162.368 90.129H161.368C161.368 94.3661 160.731 97.7465 159.516 100.323L160.421 100.749L161.326 101.175C162.707 98.2448 163.368 94.5453 163.368 90.129H162.368ZM160.421 100.749L159.519 100.318C158.337 102.788 156.371 104.611 153.547 105.785L153.931 106.708L154.315 107.631C157.549 106.287 159.909 104.138 161.323 101.18L160.421 100.749ZM153.931 106.708L153.543 105.786C150.729 106.971 146.77 107.596 141.6 107.596V108.596V109.596C146.893 109.596 151.155 108.962 154.319 107.63L153.931 106.708ZM164.256 84.937L165.007 84.2764C164.101 83.2472 162.904 82.0936 161.429 80.8176L160.775 81.574L160.121 82.3304C161.556 83.5717 162.68 84.6601 163.505 85.5976L164.256 84.937ZM160.775 81.574L161.441 80.8277C159.957 79.5044 158.393 78.2617 156.75 77.0996L156.173 77.916L155.596 78.7324C157.178 79.8517 158.682 81.0476 160.109 82.3203L160.775 81.574ZM156.173 77.916L156.764 77.109C155.116 75.9037 153.57 74.9448 152.126 74.2435L151.689 75.143L151.252 76.0425C152.561 76.6785 154.004 77.5683 155.582 78.723L156.173 77.916ZM151.689 75.143L152.446 75.7959L156.871 70.6629L156.114 70.01L155.357 69.3571L150.932 74.4901L151.689 75.143ZM156.114 70.01L155.69 70.9155C156.881 71.4738 158.246 72.2864 159.789 73.3662L160.362 72.547L160.935 71.7278C159.331 70.6049 157.865 69.7262 156.538 69.1045L156.114 70.01ZM160.362 72.547L159.803 73.3758C161.35 74.4207 162.86 75.5433 164.332 76.7439L164.964 75.969L165.596 75.1941C164.078 73.956 162.52 72.7973 160.921 71.7182L160.362 72.547ZM164.964 75.969L164.354 76.7616C165.865 77.9235 167.108 78.9963 168.092 79.9801L168.799 79.273L169.506 78.5659C168.445 77.5044 167.131 76.3745 165.574 75.1764L164.964 75.969ZM168.799 79.273L168.019 78.6473L163.476 84.3113L164.256 84.937L165.036 85.5627L169.579 79.8987L168.799 79.273ZM128.148 87.297L127.571 88.114C128.631 88.8617 129.852 88.7725 131.014 88.1914L130.567 87.297L130.12 86.4026C129.394 86.7655 129.003 86.6763 128.725 86.48L128.148 87.297ZM130.567 87.297L131.014 88.1914C132.298 87.5494 133.098 86.3106 133.537 84.7326L132.573 84.465L131.609 84.1974C131.261 85.4514 130.724 86.1006 130.12 86.4026L130.567 87.297ZM132.573 84.465L133.539 84.725C133.853 83.5561 133.851 82.4283 133.339 81.4601L132.455 81.928L131.571 82.3959C131.767 82.7651 131.843 83.3285 131.607 84.205L132.573 84.465ZM132.455 81.928L133.349 81.4808C132.92 80.6211 132.284 79.9287 131.373 79.6685L131.098 80.63L130.823 81.5915C131.014 81.6459 131.282 81.8189 131.561 82.3752L132.455 81.928ZM131.098 80.63L131.414 79.6813C130.322 79.3173 129.247 79.6078 128.283 80.2828L128.856 81.102L129.429 81.9212C130.039 81.4948 130.458 81.4707 130.782 81.5787L131.098 80.63ZM128.856 81.102L128.291 80.2767C127.226 81.0057 126.618 82.32 126.284 83.905L127.263 84.111L128.242 84.317C128.537 82.9126 128.991 82.221 129.421 81.9273L128.856 81.102ZM127.263 84.111L126.284 83.905C126.104 84.7606 126.087 85.5822 126.301 86.3327L127.263 86.058L128.225 85.7833C128.124 85.4325 128.107 84.9561 128.242 84.317L127.263 84.111ZM127.263 86.058L126.321 86.3943C126.572 87.097 126.977 87.6981 127.575 88.1162L128.148 87.297L128.721 86.4778C128.532 86.3452 128.347 86.1203 128.205 85.7217L127.263 86.058ZM192.104 110.248L191.247 110.762L191.652 111.438L192.404 111.202L192.104 110.248ZM190.216 107.357L191.039 106.789L191.035 106.782L191.03 106.776L190.216 107.357ZM187.502 104.525L187.23 103.563L185.315 104.105L186.892 105.318L187.502 104.525ZM197.119 100.454L197.684 101.279L197.693 101.273L197.119 100.454ZM201.78 94.908L202.706 95.2853L203.773 92.6662L201.297 94.0324L201.78 94.908ZM190.747 93.374L190.064 94.1045L190.072 94.1122L190.081 94.1197L190.747 93.374ZM187.856 86.471L186.857 86.511L186.857 86.5115L187.856 86.471ZM189.036 81.22L189.907 81.7113L189.912 81.7019L189.036 81.22ZM192.694 77.503L193.192 78.3699V78.3699L192.694 77.503ZM198.889 76.205L198.725 77.1914L198.806 77.205H198.889V76.205ZM199.656 76.264L199.515 77.254L200.846 77.4442L200.645 76.1142L199.656 76.264ZM199.302 72.075L200.302 72.0487L200.275 71.0383L199.265 71.0757L199.302 72.075ZM189.98 72.606L189.902 71.609V71.609L189.98 72.606ZM181.661 73.432L181.77 74.4261L181.777 74.4252L181.785 74.4243L181.661 73.432ZM175.407 74.435L174.418 74.58L174.576 75.6608L175.639 75.4078L175.407 74.435ZM174.404 67.591L174.321 66.5945L173.26 66.6828L173.415 67.736L174.404 67.591ZM180.363 67.237L180.409 68.2359L180.417 68.2356L180.424 68.2351L180.363 67.237ZM189.095 66.765L189.047 65.7661L189.047 65.7662L189.095 66.765ZM199.302 66.293L199.347 67.292L200.302 67.2491V66.293H199.302ZM199.302 57.679V56.679H198.302V57.679H199.302ZM206.146 57.679H207.146V56.679H206.146V57.679ZM206.146 65.998H205.146V67.0372L206.184 66.9973L206.146 65.998ZM214.937 65.703L214.965 66.7027L214.979 66.7021L214.937 65.703ZM222.43 65.467L222.412 64.4672V64.4672L222.43 65.467ZM227.622 65.408L228.62 65.4762L228.693 64.408H227.622V65.408ZM227.15 72.311L227.03 73.3038L228.076 73.43L228.148 72.3792L227.15 72.311ZM218.064 71.839L218.043 72.8388L218.054 72.8389L218.064 71.839ZM206.146 71.839L206.127 70.8392L205.118 70.858L205.146 71.8676L206.146 71.839ZM206.323 76.028L205.325 76.0835L205.325 76.0851L206.323 76.028ZM206.559 79.981L205.561 80.0434L205.582 80.3736L205.795 80.6264L206.559 79.981ZM204.907 102.283L204.144 101.637V101.637L204.907 102.283ZM198.063 89.952L198.134 90.9495L198.063 89.952ZM200.659 88.831L201.387 89.5164V89.5164L200.659 88.831ZM201.485 85.114L200.489 85.2045L200.494 85.2577L200.504 85.3101L201.485 85.114ZM201.308 83.816L202.292 83.6371L202.244 83.376L202.074 83.1728L201.308 83.816ZM195.408 83.403L194.72 82.677V82.677L195.408 83.403ZM194.346 86.176H195.346V86.1588L195.345 86.1415L194.346 86.176ZM195.349 89.008L194.604 89.6748L194.622 89.6955L194.642 89.7151L195.349 89.008ZM216.589 65.172L215.706 65.6412L216.253 66.6703L217.187 65.9736L216.589 65.172ZM213.875 61.16L213.078 61.7634L213.087 61.7755L213.096 61.7873L213.875 61.16ZM210.807 57.62L210.207 56.82L209.265 57.5269L210.115 58.342L210.807 57.62ZM214.111 55.142L214.791 54.4092L214.179 53.8408L213.511 54.342L214.111 55.142ZM216.058 57.325L215.274 57.9457L215.288 57.9638L215.303 57.9812L216.058 57.325ZM218.359 60.157L217.563 60.7621L217.569 60.77L217.575 60.7777L218.359 60.157ZM220.07 62.576L220.668 63.3776L221.386 62.8417L220.932 62.069L220.07 62.576ZM224.731 64.11L223.859 64.6003L224.415 65.5888L225.327 64.9133L224.731 64.11ZM222.017 60.216L221.225 60.8268L221.235 60.8394L221.245 60.8517L222.017 60.216ZM219.008 56.853L218.408 56.053L217.444 56.776L218.332 57.5901L219.008 56.853ZM222.312 54.375L222.992 53.6422L222.38 53.0738L221.712 53.575L222.312 54.375ZM224.259 56.499L223.488 57.1359L223.495 57.1443L223.502 57.1526L224.259 56.499ZM226.442 59.213L225.642 59.813L225.656 59.8318L225.671 59.8499L226.442 59.213ZM228.153 61.573L228.749 62.3763L229.471 61.8409L229.015 61.066L228.153 61.573ZM192.104 110.248L192.962 109.734C192.475 108.922 191.832 107.94 191.039 106.789L190.216 107.357L189.393 107.925C190.173 109.056 190.789 110.001 191.247 110.762L192.104 110.248ZM190.216 107.357L191.03 106.776C190.189 105.598 189.216 104.582 188.112 103.732L187.502 104.525L186.892 105.318C187.833 106.041 188.67 106.913 189.402 107.938L190.216 107.357ZM187.502 104.525L187.774 105.487C191.994 104.293 195.315 102.9 197.684 101.279L197.119 100.454L196.554 99.6287C194.439 101.076 191.349 102.397 187.23 103.563L187.502 104.525ZM197.119 100.454L197.693 101.273C200.062 99.6106 201.755 97.6191 202.706 95.2853L201.78 94.908L200.854 94.5307C200.074 96.4449 198.66 98.1507 196.545 99.6354L197.119 100.454ZM201.78 94.908L201.297 94.0324C200.313 94.5755 199.222 94.852 198.004 94.852V95.852V96.852C199.54 96.852 200.966 96.4992 202.263 95.7836L201.78 94.908ZM198.004 95.852V94.852C195.207 94.852 193.043 94.0843 191.413 92.6283L190.747 93.374L190.081 94.1197C192.149 95.9677 194.822 96.852 198.004 96.852V95.852ZM190.747 93.374L191.43 92.6435C189.846 91.163 188.965 89.1283 188.855 86.4305L187.856 86.471L186.857 86.5115C186.983 89.6351 188.029 92.2024 190.064 94.1045L190.747 93.374ZM187.856 86.471L188.855 86.431C188.783 84.6275 189.143 83.0651 189.907 81.7113L189.036 81.22L188.165 80.7287C187.198 82.4429 186.772 84.3812 186.857 86.511L187.856 86.471ZM189.036 81.22L189.912 81.7019C190.688 80.2909 191.776 79.1843 193.192 78.3699L192.694 77.503L192.196 76.6361C190.465 77.631 189.114 79.0024 188.16 80.7381L189.036 81.22ZM192.694 77.503L193.192 78.3699C194.599 77.5614 196.213 77.146 198.063 77.146V76.146V75.146C195.901 75.146 193.936 75.6353 192.196 76.6361L192.694 77.503ZM198.063 76.146V77.146C198.339 77.146 198.557 77.1634 198.725 77.1914L198.889 76.205L199.053 75.2186C198.749 75.1679 198.417 75.146 198.063 75.146V76.146ZM198.889 76.205V77.205C199.07 77.205 199.278 77.2202 199.515 77.254L199.656 76.264L199.797 75.274C199.483 75.2292 199.18 75.205 198.889 75.205V76.205ZM199.656 76.264L200.645 76.1142C200.455 74.8623 200.34 73.5076 200.302 72.0487L199.302 72.075L198.302 72.1013C198.343 73.6318 198.464 75.0697 198.667 76.4138L199.656 76.264ZM199.302 72.075L199.265 71.0757C196.066 71.1942 192.945 71.3719 189.902 71.609L189.98 72.606L190.058 73.603C193.072 73.3681 196.166 73.1918 199.339 73.0743L199.302 72.075ZM189.98 72.606L189.902 71.609C186.861 71.846 184.072 72.1228 181.537 72.4397L181.661 73.432L181.785 74.4243C184.284 74.1119 187.042 73.838 190.058 73.603L189.98 72.606ZM181.661 73.432L181.552 72.4379C179.012 72.7158 176.882 73.0558 175.175 73.4622L175.407 74.435L175.639 75.4078C177.236 75.0275 179.276 74.6988 181.77 74.4261L181.661 73.432ZM175.407 74.435L176.396 74.29L175.393 67.446L174.404 67.591L173.415 67.736L174.418 74.58L175.407 74.435ZM174.404 67.591L174.487 68.5875C175.885 68.4711 177.857 68.3537 180.409 68.2359L180.363 67.237L180.317 66.2381C177.756 66.3563 175.755 66.4749 174.321 66.5945L174.404 67.591ZM180.363 67.237L180.424 68.2351C182.976 68.0781 185.882 67.921 189.143 67.7638L189.095 66.765L189.047 65.7662C185.779 65.9236 182.864 66.0812 180.302 66.2389L180.363 67.237ZM189.095 66.765L189.143 67.7639C192.446 67.6066 195.847 67.4493 199.347 67.292L199.302 66.293L199.257 65.294C195.756 65.4514 192.352 65.6088 189.047 65.7661L189.095 66.765ZM199.302 66.293H200.302V57.679H199.302H198.302V66.293H199.302ZM199.302 57.679V58.679H206.146V57.679V56.679H199.302V57.679ZM206.146 57.679H205.146V65.998H206.146H207.146V57.679H206.146ZM206.146 65.998L206.184 66.9973C209.249 66.8794 212.176 66.7812 214.965 66.7026L214.937 65.703L214.909 64.7034C212.112 64.7822 209.179 64.8806 206.108 64.9987L206.146 65.998ZM214.937 65.703L214.979 66.7021C217.766 66.5844 220.255 66.506 222.448 66.4668L222.43 65.467L222.412 64.4672C220.2 64.5067 217.694 64.5856 214.895 64.7039L214.937 65.703ZM222.43 65.467L222.448 66.4668C224.648 66.4275 226.372 66.408 227.622 66.408V65.408V64.408C226.355 64.408 224.617 64.4278 222.412 64.4672L222.43 65.467ZM227.622 65.408L226.624 65.3398L226.152 72.2428L227.15 72.311L228.148 72.3792L228.62 65.4762L227.622 65.408ZM227.15 72.311L227.27 71.3182C224.937 71.0366 221.867 70.8786 218.074 70.8391L218.064 71.839L218.054 72.8389C221.813 72.8781 224.801 73.0347 227.03 73.3038L227.15 72.311ZM218.064 71.839L218.085 70.8392C214.334 70.7602 210.348 70.7603 206.127 70.8392L206.146 71.839L206.165 72.8388C210.362 72.7604 214.321 72.7604 218.043 72.8388L218.064 71.839ZM206.146 71.839L205.146 71.8676C205.186 73.2535 205.245 74.6588 205.325 76.0835L206.323 76.028L207.321 75.9725C207.243 74.5652 207.185 73.1779 207.146 71.8104L206.146 71.839ZM206.323 76.028L205.325 76.0851C205.403 77.4633 205.482 78.7828 205.561 80.0434L206.559 79.981L207.557 79.9186C207.479 78.6619 207.4 77.346 207.321 75.9709L206.323 76.028ZM206.559 79.981L205.795 80.6264C207.533 82.6836 208.45 85.4631 208.45 89.067H209.45H210.45C210.45 85.1189 209.44 81.841 207.323 79.3356L206.559 79.981ZM209.45 89.067H208.45C208.45 94.091 207.002 98.2594 204.144 101.637L204.907 102.283L205.67 102.929C208.87 99.1479 210.45 94.5056 210.45 89.067H209.45ZM204.907 102.283L204.144 101.637C201.263 105.042 197.172 107.607 191.804 109.294L192.104 110.248L192.404 111.202C198.049 109.428 202.494 106.683 205.67 102.929L204.907 102.283ZM198.063 89.952L198.134 90.9495C199.432 90.8567 200.552 90.4035 201.387 89.5164L200.659 88.831L199.931 88.1456C199.507 88.5958 198.896 88.8899 197.992 88.9545L198.063 89.952ZM200.659 88.831L201.387 89.5164C202.218 88.6332 202.603 87.509 202.603 86.235H201.603H200.603C200.603 87.085 200.358 87.6914 199.931 88.1456L200.659 88.831ZM201.603 86.235H202.603C202.603 85.8071 202.555 85.3674 202.466 84.9179L201.485 85.114L200.504 85.3101C200.572 85.6472 200.603 85.9549 200.603 86.235H201.603ZM201.485 85.114L202.481 85.0235C202.439 84.5608 202.376 84.0987 202.292 83.6371L201.308 83.816L200.324 83.9949C200.398 84.3987 200.452 84.8018 200.489 85.2045L201.485 85.114ZM201.308 83.816L202.074 83.1728C201.062 81.9686 199.742 81.341 198.181 81.341V82.341V83.341C199.137 83.341 199.902 83.6968 200.542 84.4592L201.308 83.816ZM198.181 82.341V81.341C196.843 81.341 195.667 81.78 194.72 82.677L195.408 83.403L196.096 84.129C196.644 83.61 197.316 83.341 198.181 83.341V82.341ZM195.408 83.403L194.72 82.677C193.741 83.6049 193.299 84.8182 193.347 86.2105L194.346 86.176L195.345 86.1415C195.315 85.2525 195.58 84.6171 196.096 84.129L195.408 83.403ZM194.346 86.176H193.346C193.346 87.5265 193.748 88.7188 194.604 89.6748L195.349 89.008L196.094 88.3412C195.612 87.8025 195.346 87.1068 195.346 86.176H194.346ZM195.349 89.008L194.642 89.7151C195.578 90.6507 196.777 91.0464 198.134 90.9495L198.063 89.952L197.992 88.9545C197.146 89.0149 196.536 88.7813 196.056 88.3009L195.349 89.008ZM216.589 65.172L217.472 64.7028C216.767 63.3755 215.824 61.9852 214.654 60.5327L213.875 61.16L213.096 61.7873C214.207 63.1668 215.074 64.4512 215.706 65.6412L216.589 65.172ZM213.875 61.16L214.672 60.5566C213.551 59.0742 212.493 57.8505 211.499 56.898L210.807 57.62L210.115 58.342C211.009 59.1988 211.997 60.3352 213.078 61.7634L213.875 61.16ZM210.807 57.62L211.407 58.42L214.711 55.942L214.111 55.142L213.511 54.342L210.207 56.82L210.807 57.62ZM214.111 55.142L213.431 55.8748C213.929 56.3372 214.542 57.0209 215.274 57.9457L216.058 57.325L216.842 56.7043C216.079 55.7411 215.395 54.9695 214.791 54.4092L214.111 55.142ZM216.058 57.325L215.303 57.9812C216.075 58.8688 216.828 59.7957 217.563 60.7621L218.359 60.157L219.155 59.5519C218.395 58.5516 217.614 57.5905 216.813 56.6688L216.058 57.325ZM218.359 60.157L217.575 60.7777C218.307 61.703 218.847 62.4693 219.208 63.083L220.07 62.576L220.932 62.069C220.506 61.3453 219.905 60.499 219.143 59.5363L218.359 60.157ZM220.07 62.576L219.472 61.7744L215.991 64.3704L216.589 65.172L217.187 65.9736L220.668 63.3776L220.07 62.576ZM224.731 64.11L225.603 63.6197C224.861 62.3008 223.921 60.9544 222.789 59.5803L222.017 60.216L221.245 60.8517C222.316 62.1523 223.185 63.4019 223.859 64.6003L224.731 64.11ZM222.017 60.216L222.809 59.6052C221.723 58.1981 220.682 57.0308 219.684 56.1158L219.008 56.853L218.332 57.5901C219.222 58.4059 220.187 59.4806 221.225 60.8268L222.017 60.216ZM219.008 56.853L219.608 57.653L222.912 55.175L222.312 54.375L221.712 53.575L218.408 56.053L219.008 56.853ZM222.312 54.375L221.632 55.1078C222.137 55.5775 222.755 56.2486 223.488 57.1359L224.259 56.499L225.03 55.8621C224.268 54.9401 223.588 54.1952 222.992 53.6422L222.312 54.375ZM224.259 56.499L223.502 57.1526C224.234 58 224.947 58.8868 225.642 59.813L226.442 59.213L227.242 58.613C226.521 57.6512 225.779 56.7286 225.016 55.8454L224.259 56.499ZM226.442 59.213L225.671 59.8499C226.4 60.7322 226.934 61.4738 227.291 62.08L228.153 61.573L229.015 61.066C228.585 60.3349 227.979 59.5032 227.213 58.5761L226.442 59.213ZM228.153 61.573L227.557 60.7697L224.135 63.3067L224.731 64.11L225.327 64.9133L228.749 62.3763L228.153 61.573Z" fill="black" mask="url(#path-3-outside-1_2203_246)"/>
<path d="M9.86 36.29C9.72 35.99 9.51 35.64 9.23 35.24C8.95 34.84 8.65 34.46 8.33 34.1C8.01 33.72 7.72 33.42 7.46 33.2C10.16 32.16 12.13 30.84 13.37 29.24C14.61 27.64 15.31 25.59 15.47 23.09C13.89 23.11 12.37 23.13 10.91 23.15C9.47 23.17 8.24 23.2 7.22 23.24C6.2 23.26 5.52 23.28 5.18 23.3L5 19.76C5.24 19.78 5.81 19.79 6.71 19.79C7.61 19.79 8.72 19.79 10.04 19.79C11.36 19.77 12.79 19.75 14.33 19.73C15.89 19.71 17.44 19.69 18.98 19.67C20.52 19.65 21.95 19.63 23.27 19.61C24.61 19.59 25.73 19.57 26.63 19.55C27.55 19.51 28.13 19.48 28.37 19.46L28.4 23C28.12 22.98 27.53 22.97 26.63 22.97C25.73 22.97 24.64 22.98 23.36 23C22.08 23 20.7 23.01 19.22 23.03C19.04 26.29 18.18 28.98 16.64 31.1C15.12 33.2 12.86 34.93 9.86 36.29ZM9.29 16.04L9.08 12.53C9.32 12.53 9.81 12.53 10.55 12.53C11.31 12.53 12.2 12.52 13.22 12.5C14.26 12.48 15.34 12.46 16.46 12.44C17.6 12.42 18.68 12.4 19.7 12.38C20.74 12.34 21.62 12.31 22.34 12.29C23.08 12.27 23.56 12.25 23.78 12.23L23.84 15.74C23.58 15.72 23.08 15.72 22.34 15.74C21.62 15.74 20.75 15.75 19.73 15.77C18.73 15.77 17.68 15.79 16.58 15.83C15.5 15.85 14.45 15.87 13.43 15.89C12.43 15.91 11.56 15.94 10.82 15.98C10.08 16 9.57 16.02 9.29 16.04ZM30.32 15.17C29.94 14.53 29.45 13.85 28.85 13.13C28.25 12.41 27.71 11.83 27.23 11.39L28.91 10.13C29.19 10.39 29.54 10.76 29.96 11.24C30.38 11.7 30.78 12.18 31.16 12.68C31.56 13.16 31.87 13.57 32.09 13.91L30.32 15.17ZM27.5 17.33C27.28 16.91 26.99 16.46 26.63 15.98C26.27 15.5 25.9 15.04 25.52 14.6C25.14 14.16 24.79 13.79 24.47 13.49L26.15 12.26C26.43 12.52 26.77 12.89 27.17 13.37C27.59 13.83 27.99 14.31 28.37 14.81C28.77 15.31 29.07 15.73 29.27 16.07L27.5 17.33ZM43.13 36.41C42.99 36.13 42.78 35.8 42.5 35.42C42.24 35.04 41.95 34.66 41.63 34.28C41.31 33.9 41.01 33.59 40.73 33.35C42.79 32.49 44.49 31.46 45.83 30.26C47.17 29.06 48.17 27.6 48.83 25.88C49.49 24.14 49.82 22.07 49.82 19.67V18.29C49.82 17.85 49.81 17.28 49.79 16.58C49.79 15.88 49.78 15.16 49.76 14.42C49.76 13.68 49.75 13.01 49.73 12.41C49.73 11.81 49.72 11.38 49.7 11.12H53.57V19.67C53.57 22.47 53.2 24.91 52.46 26.99C51.72 29.05 50.58 30.85 49.04 32.39C47.5 33.91 45.53 35.25 43.13 36.41ZM40.64 26.03C40.66 25.85 40.66 25.41 40.64 24.71C40.64 23.99 40.63 23.12 40.61 22.1C40.61 21.08 40.6 20.01 40.58 18.89C40.56 17.77 40.53 16.7 40.49 15.68C40.47 14.66 40.45 13.8 40.43 13.1C40.41 12.38 40.39 11.93 40.37 11.75H44.09C44.09 11.97 44.09 12.43 44.09 13.13C44.09 13.83 44.09 14.68 44.09 15.68C44.11 16.66 44.13 17.69 44.15 18.77C44.17 19.85 44.19 20.9 44.21 21.92C44.25 22.92 44.28 23.79 44.3 24.53C44.34 25.25 44.37 25.74 44.39 26L40.64 26.03ZM64.76 25.55C64.78 25.27 64.79 24.89 64.79 24.41C64.79 23.93 64.79 23.45 64.79 22.97C64.79 22.49 64.78 22.11 64.76 21.83C65.14 21.85 65.81 21.87 66.77 21.89C67.75 21.91 68.91 21.93 70.25 21.95C71.61 21.97 73.06 21.99 74.6 22.01C76.14 22.01 77.68 22.01 79.22 22.01C80.76 22.01 82.21 22 83.57 21.98C84.95 21.96 86.14 21.94 87.14 21.92C88.14 21.9 88.85 21.87 89.27 21.83C89.25 22.09 89.23 22.46 89.21 22.94C89.21 23.42 89.21 23.91 89.21 24.41C89.23 24.89 89.24 25.26 89.24 25.52C88.74 25.5 88 25.48 87.02 25.46C86.06 25.44 84.93 25.42 83.63 25.4C82.35 25.38 80.98 25.37 79.52 25.37C78.08 25.37 76.62 25.37 75.14 25.37C73.66 25.37 72.25 25.38 70.91 25.4C69.57 25.42 68.36 25.44 67.28 25.46C66.22 25.48 65.38 25.51 64.76 25.55ZM103.58 35.93V11.75H107.24V20.84L108.59 18.92C109.07 19.26 109.7 19.69 110.48 20.21C111.28 20.71 112.13 21.23 113.03 21.77C113.93 22.29 114.8 22.77 115.64 23.21C116.48 23.65 117.19 23.98 117.77 24.2C117.53 24.42 117.25 24.74 116.93 25.16C116.63 25.56 116.35 25.98 116.09 26.42C115.83 26.84 115.62 27.2 115.46 27.5C114.98 27.24 114.38 26.91 113.66 26.51C112.96 26.09 112.21 25.63 111.41 25.13C110.63 24.63 109.87 24.14 109.13 23.66C108.41 23.16 107.78 22.71 107.24 22.31V35.93H103.58ZM130.85 35.24C130.69 34.96 130.45 34.61 130.13 34.19C129.83 33.77 129.5 33.36 129.14 32.96C128.8 32.54 128.47 32.21 128.15 31.97C130.91 31.01 133.34 29.67 135.44 27.95C137.56 26.23 139.28 24.22 140.6 21.92C141.94 19.6 142.82 17.08 143.24 14.36L147.11 15.41C146.11 20.15 144.24 24.18 141.5 27.5C138.76 30.82 135.21 33.4 130.85 35.24ZM131.21 22.97C130.95 22.41 130.58 21.76 130.1 21.02C129.64 20.26 129.14 19.53 128.6 18.83C128.08 18.11 127.58 17.54 127.1 17.12L130.46 14.9C130.78 15.22 131.15 15.64 131.57 16.16C131.99 16.68 132.41 17.23 132.83 17.81C133.25 18.39 133.63 18.95 133.97 19.49C134.31 20.01 134.57 20.45 134.75 20.81L131.21 22.97ZM146.51 14.9C146.17 14.26 145.71 13.56 145.13 12.8C144.57 12.04 144.06 11.43 143.6 10.97L145.34 9.8C145.62 10.06 145.95 10.44 146.33 10.94C146.73 11.42 147.11 11.92 147.47 12.44C147.85 12.94 148.14 13.37 148.34 13.73L146.51 14.9ZM150.08 13.97C149.76 13.33 149.3 12.64 148.7 11.9C148.12 11.14 147.6 10.53 147.14 10.07L148.91 8.9C149.19 9.16 149.52 9.54 149.9 10.04C150.3 10.52 150.68 11.01 151.04 11.51C151.42 12.01 151.71 12.43 151.91 12.77L150.08 13.97ZM154.76 25.55C154.78 25.27 154.79 24.89 154.79 24.41C154.79 23.93 154.79 23.45 154.79 22.97C154.79 22.49 154.78 22.11 154.76 21.83C155.14 21.85 155.81 21.87 156.77 21.89C157.75 21.91 158.91 21.93 160.25 21.95C161.61 21.97 163.06 21.99 164.6 22.01C166.14 22.01 167.68 22.01 169.22 22.01C170.76 22.01 172.21 22 173.57 21.98C174.95 21.96 176.14 21.94 177.14 21.92C178.14 21.9 178.85 21.87 179.27 21.83C179.25 22.09 179.23 22.46 179.21 22.94C179.21 23.42 179.21 23.91 179.21 24.41C179.23 24.89 179.24 25.26 179.24 25.52C178.74 25.5 178 25.48 177.02 25.46C176.06 25.44 174.93 25.42 173.63 25.4C172.35 25.38 170.98 25.37 169.52 25.37C168.08 25.37 166.62 25.37 165.14 25.37C163.66 25.37 162.25 25.38 160.91 25.4C159.57 25.42 158.36 25.44 157.28 25.46C156.22 25.48 155.38 25.51 154.76 25.55ZM188.84 34.16L186.8 30.47C188.22 30.17 189.71 29.68 191.27 29C192.85 28.3 194.43 27.49 196.01 26.57C197.59 25.63 199.09 24.63 200.51 23.57C201.93 22.49 203.21 21.4 204.35 20.3C205.51 19.2 206.45 18.15 207.17 17.15C207.25 17.49 207.38 17.91 207.56 18.41C207.76 18.91 207.97 19.4 208.19 19.88C208.41 20.34 208.6 20.7 208.76 20.96C207.78 22.22 206.55 23.5 205.07 24.8C203.61 26.08 201.99 27.32 200.21 28.52C198.43 29.7 196.57 30.78 194.63 31.76C192.69 32.74 190.76 33.54 188.84 34.16ZM192.05 20.93C191.79 20.65 191.42 20.32 190.94 19.94C190.48 19.56 189.96 19.16 189.38 18.74C188.82 18.32 188.27 17.94 187.73 17.6C187.19 17.24 186.72 16.97 186.32 16.79L188.72 13.76C189.12 13.98 189.59 14.26 190.13 14.6C190.67 14.94 191.22 15.31 191.78 15.71C192.36 16.11 192.9 16.51 193.4 16.91C193.9 17.29 194.3 17.63 194.6 17.93L192.05 20.93ZM216.83 35.78C216.65 35.6 216.37 35.38 215.99 35.12C215.61 34.86 215.22 34.62 214.82 34.4C214.42 34.18 214.08 34.03 213.8 33.95C214.64 33.05 215.45 31.96 216.23 30.68C217.01 29.38 217.75 27.97 218.45 26.45C219.15 24.93 219.77 23.37 220.31 21.77C219.29 21.89 218.3 22.03 217.34 22.19C216.4 22.35 215.62 22.51 215 22.67C214.98 22.41 214.93 22.06 214.85 21.62C214.77 21.18 214.68 20.75 214.58 20.33C214.48 19.89 214.38 19.57 214.28 19.37C214.74 19.33 215.34 19.28 216.08 19.22C216.82 19.14 217.64 19.06 218.54 18.98C219.44 18.88 220.34 18.8 221.24 18.74C221.6 17.48 221.89 16.25 222.11 15.05C222.35 13.83 222.51 12.7 222.59 11.66L226.13 12.29C226.03 13.21 225.87 14.2 225.65 15.26C225.43 16.3 225.16 17.37 224.84 18.47C225.24 18.45 225.6 18.44 225.92 18.44C226.24 18.42 226.52 18.41 226.76 18.41C227.56 18.41 228.27 18.54 228.89 18.8C229.53 19.04 230.04 19.48 230.42 20.12C230.8 20.74 231.02 21.61 231.08 22.73C231.14 23.83 231.01 25.24 230.69 26.96C230.29 29.12 229.83 30.81 229.31 32.03C228.81 33.25 228.18 34.11 227.42 34.61C226.66 35.11 225.69 35.36 224.51 35.36C223.31 35.36 222.26 35.14 221.36 34.7C221.38 34.22 221.38 33.64 221.36 32.96C221.34 32.28 221.28 31.72 221.18 31.28C222.18 31.72 223.16 31.94 224.12 31.94C224.6 31.94 225.01 31.81 225.35 31.55C225.71 31.27 226.05 30.73 226.37 29.93C226.69 29.11 227.01 27.91 227.33 26.33C227.63 24.87 227.75 23.79 227.69 23.09C227.63 22.37 227.44 21.9 227.12 21.68C226.8 21.46 226.4 21.35 225.92 21.35C225.36 21.35 224.69 21.38 223.91 21.44C223.29 23.3 222.58 25.13 221.78 26.93C221 28.73 220.18 30.4 219.32 31.94C218.48 33.46 217.65 34.74 216.83 35.78ZM238.7 27.98C238.38 27.44 237.94 26.8 237.38 26.06C236.82 25.32 236.21 24.58 235.55 23.84C234.89 23.08 234.25 22.39 233.63 21.77C233.01 21.13 232.47 20.65 232.01 20.33L234.65 18.11C235.13 18.47 235.69 18.96 236.33 19.58C236.97 20.18 237.63 20.84 238.31 21.56C238.99 22.28 239.62 22.99 240.2 23.69C240.78 24.39 241.23 25 241.55 25.52L238.7 27.98ZM240.05 15.62C239.51 15.12 238.84 14.62 238.04 14.12C237.26 13.6 236.57 13.21 235.97 12.95L237.23 11.24C237.57 11.4 238 11.64 238.52 11.96C239.06 12.28 239.59 12.62 240.11 12.98C240.65 13.32 241.07 13.62 241.37 13.88L240.05 15.62ZM238.01 18.5C237.49 18 236.83 17.49 236.03 16.97C235.25 16.45 234.56 16.05 233.96 15.77L235.22 14.09C235.56 14.25 235.99 14.5 236.51 14.84C237.05 15.16 237.58 15.5 238.1 15.86C238.62 16.2 239.03 16.5 239.33 16.76L238.01 18.5Z" fill="#383D43"/>
<path d="M4.5 43H206.5" stroke="black"/>
</svg>
